<?xml version="1.0" encoding="UTF-8"?><svg id="a" xmlns="http://www.w3.org/2000/svg" xmlns:xlink="http://www.w3.org/1999/xlink" viewBox="0 0 2965.95 702.33"><defs><clipPath id="b"><rect x="270" y="60.35" width="300" height="270" rx="15" ry="15" fill="none"/></clipPath><clipPath id="c"><path d="m240,345.35V75.35c0-8.28-6.72-15-15-15H15c-8.28,0-15,6.72-15,15v540c0,8.28,6.72,15,15,15h300c8.28,0,15-6.72,15-15v-240c0-8.28-6.72-15-15-15h-60c-8.28,0-15-6.72-15-15Z" fill="none"/></clipPath><clipPath id="d"><rect x="360" y="360.35" width="210" height="270" rx="15" ry="15" fill="none"/></clipPath></defs><rect x="270" y="60.35" width="300" height="270" rx="15" ry="15" fill="#59bffa"/><path d="m240,345.35V75.35c0-8.28-6.72-15-15-15H15c-8.28,0-15,6.72-15,15v540c0,8.28,6.72,15,15,15h300c8.28,0,15-6.72,15-15v-240c0-8.28-6.72-15-15-15h-60c-8.28,0-15-6.72-15-15Z" fill="#19a3f5"/><rect x="360" y="360.35" width="210" height="270" rx="15" ry="15" fill="#f6931a"/><g clip-path="url(#b)" fill="none"><path d="m396.04,338.85h-61.1c-1.93,0-3.5-1.57-3.5-3.5s1.57-3.5,3.5-3.5h61.1c1.93,0,3.5,1.57,3.5,3.5s-1.57,3.5-3.5,3.5Z" fill="#fff"/><path d="m365.38,338.85c-1.93,0-3.5-1.57-3.5-3.5v-51.93c0-1.93,1.57-3.5,3.5-3.5s3.5,1.57,3.5,3.5v51.93c0,1.93-1.57,3.5-3.5,3.5Z" fill="#fff"/><path d="m365.38,286.92c-1.1,0-2.14-.52-2.8-1.4l-64.15-85.54c-.8-1.06-.92-2.48-.33-3.67s1.8-1.93,3.13-1.93h128.31c1.33,0,2.54.75,3.13,1.93s.46,2.6-.33,3.67l-64.15,85.54c-.66.88-1.7,1.4-2.8,1.4Zm-57.15-85.54l57.15,76.21,57.15-76.21h-114.31Z" fill="#fff"/><path d="m492.21,289.97c-10.67,0-20.66-4.21-28.12-11.84s-11.42-17.72-11.17-28.39l2.18-91.66c.04-1.9,1.6-3.42,3.5-3.42h67.21c1.9,0,3.45,1.52,3.5,3.42l2.18,91.66c.25,10.67-3.71,20.75-11.17,28.39-7.46,7.64-17.44,11.84-28.12,11.84Zm-30.19-128.31l-2.1,88.24c-.21,8.77,3.05,17.06,9.18,23.33,6.13,6.28,14.33,9.73,23.11,9.73s16.98-3.46,23.11-9.73c6.13-6.28,9.39-14.56,9.18-23.33l-2.1-88.24h-60.37Z" fill="#fff"/><path d="m492.21,338.85c-1.93,0-3.5-1.57-3.5-3.5v-48.88c0-1.93,1.57-3.5,3.5-3.5s3.5,1.57,3.5,3.5v48.88c0,1.93-1.57,3.5-3.5,3.5Z" fill="#fff"/><path d="m522.76,338.85h-61.1c-1.93,0-3.5-1.57-3.5-3.5s1.57-3.5,3.5-3.5h61.1c1.93,0,3.5,1.57,3.5,3.5s-1.57,3.5-3.5,3.5Z" fill="#fff"/></g><g clip-path="url(#c)" fill="none"><path d="m168.68,389.25h60.26c3.93,0,7.12,3.19,7.12,7.12v6.75h-74.5v-6.75c0-3.93,3.19-7.12,7.12-7.12Z" fill="#fff"/><path d="m255.11,389.25h60.26c3.93,0,7.12,3.19,7.12,7.12v6.75h-74.5v-6.75c0-3.93,3.19-7.12,7.12-7.12Z" fill="#fff"/><path d="m329.7,590.37h-175.37c-8.88,0-16.1-7.22-16.1-16.1v-158.55c0-8.88,7.22-16.1,16.1-16.1h175.37c8.88,0,16.1,7.22,16.1,16.1v158.55c0,8.88-7.22,16.1-16.1,16.1Zm-175.37-183.74c-5.02,0-9.1,4.08-9.1,9.1v158.55c0,5.02,4.08,9.1,9.1,9.1h175.37c5.02,0,9.1-4.08,9.1-9.1v-158.55c0-5.02-4.08-9.1-9.1-9.1h-175.37Z" fill="#fff"/><path d="m174.35,601.47c-1.93,0-3.5-1.57-3.5-3.5v-11.1c0-1.93,1.57-3.5,3.5-3.5s3.5,1.57,3.5,3.5v11.1c0,1.93-1.57,3.5-3.5,3.5Z" fill="#fff"/><path d="m309.45,601.47c-1.93,0-3.5-1.57-3.5-3.5v-11.1c0-1.93,1.57-3.5,3.5-3.5s3.5,1.57,3.5,3.5v11.1c0,1.93-1.57,3.5-3.5,3.5Z" fill="#fff"/><path d="m316.64,563.36h-149.24c-1.93,0-3.5-1.57-3.5-3.5v-74.05c0-1.93,1.57-3.5,3.5-3.5h149.24c1.93,0,3.5,1.57,3.5,3.5v74.05c0,1.93-1.57,3.5-3.5,3.5Zm-145.74-7h142.24v-67.05h-142.24v67.05Z" fill="#fff"/><path d="m301.59,469.84h-119.15c-1.93,0-3.5-1.57-3.5-3.5s1.57-3.5,3.5-3.5h119.15c1.93,0,3.5,1.57,3.5,3.5s-1.57,3.5-3.5,3.5Z" fill="#fff"/><circle cx="176.07" cy="437.83" r="10.49" fill="#fff"/><circle cx="219.86" cy="437.85" r="10.49" fill="#fff"/><circle cx="264.06" cy="437.89" r="10.49" fill="#fff"/><circle cx="307.96" cy="437.84" r="10.49" fill="#fff"/><path d="m38.24,601.47c-1.93,0-3.5-1.57-3.5-3.5v-10.21c0-1.93,1.57-3.5,3.5-3.5s3.5,1.57,3.5,3.5v10.21c0,1.93-1.57,3.5-3.5,3.5Z" fill="#fff"/><path d="m48.24,212.71c-1.93,0-3.5-1.57-3.5-3.5v-50.08c0-1.93,1.57-3.5,3.5-3.5s3.5,1.57,3.5,3.5v50.08c0,1.93-1.57,3.5-3.5,3.5Z" fill="#fff"/><path d="m48.24,362.92c-1.93,0-3.5-1.57-3.5-3.5v-69.45c0-1.93,1.57-3.5,3.5-3.5s3.5,1.57,3.5,3.5v69.45c0,1.93-1.57,3.5-3.5,3.5Z" fill="#fff"/><path d="m72.96,591.26H-114.27c-16.29,0-29.54-13.25-29.54-29.54V137.67c0-16.29,13.25-29.54,29.54-29.54H72.96c16.29,0,29.54,13.25,29.54,29.54v424.04c0,16.29-13.25,29.54-29.54,29.54ZM-114.27,115.13c-12.43,0-22.54,10.11-22.54,22.54v424.04c0,12.43,10.11,22.54,22.54,22.54H72.96c12.43,0,22.54-10.11,22.54-22.54V137.67c0-12.43-10.11-22.54-22.54-22.54H-114.27Z" fill="#fff"/><path d="m99,253.47h-239.32c-1.93,0-3.5-1.57-3.5-3.5s1.57-3.5,3.5-3.5H99c1.93,0,3.5,1.57,3.5,3.5s-1.57,3.5-3.5,3.5Z" fill="#fff"/><path d="m213.59,176.73h-30.37c-1.93,0-3.5-1.57-3.5-3.5s1.57-3.5,3.5-3.5h30.37c1.93,0,3.5,1.57,3.5,3.5s-1.57,3.5-3.5,3.5Z" fill="#fff"/><path d="m453.15,135.43H150.92c-1.93,0-3.5-1.57-3.5-3.5s1.57-3.5,3.5-3.5h302.23c1.93,0,3.5,1.57,3.5,3.5s-1.57,3.5-3.5,3.5Z" fill="#fff"/><path d="m453.15,216.02H150.92c-1.93,0-3.5-1.57-3.5-3.5v-80.59c0-1.08.5-2.1,1.35-2.76l89.32-69.47V-29.26c0-1.93,1.57-3.5,3.5-3.5h120.89c1.93,0,3.5,1.57,3.5,3.5V59.7l89.32,69.47c.85.66,1.35,1.68,1.35,2.76v80.59c0,1.93-1.57,3.5-3.5,3.5Zm-298.73-7h295.23v-75.38l-89.32-69.47c-.85-.66-1.35-1.68-1.35-2.76V-25.76h-113.89V61.41c0,1.08-.5,2.1-1.35,2.76l-89.32,69.47v75.38ZM241.59,61.41h0,0Z" fill="#fff"/></g><g clip-path="url(#d)" fill="none"><path d="m443.14,649.58c-3.16,0-6.12-1.25-8.32-3.52-2.2-2.27-3.37-5.26-3.28-8.42l1.85-64.61c.06-1.93,1.7-3.44,3.6-3.4,1.93.06,3.45,1.67,3.4,3.6l-1.85,64.61c-.04,1.25.43,2.44,1.3,3.34s2.05,1.39,3.3,1.39,2.42-.5,3.3-1.39c.88-.9,1.34-2.08,1.3-3.34l-1.85-64.61c-.05-1.93,1.47-3.54,3.4-3.6.03,0,.07,0,.1,0,1.89,0,3.44,1.5,3.5,3.4l1.85,64.61c.09,3.16-1.08,6.15-3.28,8.42-2.2,2.27-5.16,3.51-8.32,3.51Z" fill="#fff"/><path d="m449.39,576.64h-12.5c-8.82,0-16-7.18-16-16v-37.51c0-1.93,1.57-3.5,3.5-3.5s3.5,1.57,3.5,3.5v37.51c0,4.96,4.04,9,9,9h12.5c4.96,0,9-4.04,9-9v-37.51c0-1.93,1.57-3.5,3.5-3.5s3.5,1.57,3.5,3.5v37.51c0,8.82-7.18,16-16,16Z" fill="#fff"/><path d="m436.89,559.97c-1.93,0-3.5-1.57-3.5-3.5v-33.34c0-1.93,1.57-3.5,3.5-3.5s3.5,1.57,3.5,3.5v33.34c0,1.93-1.57,3.5-3.5,3.5Z" fill="#fff"/><path d="m449.39,559.97c-1.93,0-3.5-1.57-3.5-3.5v-33.34c0-1.93,1.57-3.5,3.5-3.5s3.5,1.57,3.5,3.5v33.34c0,1.93-1.57,3.5-3.5,3.5Z" fill="#fff"/><path d="m508.71,649.58c-3.16,0-6.11-1.25-8.32-3.51-2.2-2.27-3.37-5.26-3.28-8.42l1.86-65.56c.06-1.93,1.71-3.42,3.6-3.4,1.93.06,3.45,1.67,3.4,3.6l-1.86,65.56c-.04,1.25.43,2.44,1.3,3.34.87.9,2.05,1.39,3.3,1.39s2.42-.5,3.3-1.39,1.34-2.08,1.3-3.34l-1.86-65.56c-.05-1.93,1.47-3.54,3.4-3.6,1.93-.08,3.54,1.47,3.6,3.4l1.86,65.56c.09,3.16-1.07,6.15-3.28,8.42-2.2,2.27-5.16,3.52-8.32,3.52Z" fill="#fff"/><path d="m508.71,576.64c-13.42,0-24.34-10.92-24.34-24.34v-10.42c0-13.42,10.92-24.34,24.34-24.34s24.34,10.92,24.34,24.34v10.42c0,13.42-10.92,24.34-24.34,24.34Zm0-52.1c-9.56,0-17.34,7.78-17.34,17.34v10.42c0,9.56,7.78,17.34,17.34,17.34s17.34-7.78,17.34-17.34v-10.42c0-9.56-7.78-17.34-17.34-17.34Z" fill="#fff"/><path d="m382.24,503.53c-69.25,0-125.58-56.34-125.58-125.58s56.34-125.58,125.58-125.58,125.58,56.34,125.58,125.58-56.34,125.58-125.58,125.58Zm0-244.16c-65.39,0-118.58,53.2-118.58,118.58s53.2,118.58,118.58,118.58,118.58-53.2,118.58-118.58-53.2-118.58-118.58-118.58Z" fill="#fff"/><path d="m382.24,467.78c-49.53,0-89.83-40.29-89.83-89.83s40.29-89.83,89.83-89.83,89.83,40.29,89.83,89.83-40.29,89.83-89.83,89.83Zm0-172.65c-45.67,0-82.83,37.16-82.83,82.83s37.16,82.83,82.83,82.83,82.83-37.16,82.83-82.83-37.16-82.83-82.83-82.83Z" fill="#fff"/></g><path d="m2950.65,69.28c4.82,2.73,8.58,6.51,11.27,11.32,2.69,4.81,4.03,10.25,4.03,16.33s-1.35,11.52-4.03,16.33c-2.69,4.81-6.45,8.58-11.27,11.32-4.82,2.73-10.28,4.1-16.37,4.1s-11.55-1.37-16.37-4.1c-4.82-2.73-8.6-6.51-11.34-11.32-2.74-4.81-4.11-10.25-4.11-16.33s1.37-11.52,4.11-16.33c2.74-4.81,6.52-8.58,11.34-11.32,4.82-2.73,10.28-4.1,16.37-4.1s11.55,1.37,16.37,4.1Zm-.17,44.16c4.07-4.2,6.1-9.7,6.1-16.51s-2.03-12.32-6.1-16.51c-4.07-4.2-9.47-6.3-16.2-6.3s-12.25,2.1-16.27,6.3c-4.02,4.2-6.03,9.7-6.03,16.51s2.01,12.32,6.03,16.51c4.02,4.2,9.44,6.3,16.27,6.3s12.13-2.1,16.2-6.3Zm-4.84-16.72c-1.03,1.54-2.43,2.68-4.21,3.43l7.44,11.47h-10.66l-6.17-10.49h-.98v10.49h-8.84v-30.09h14.17c3.27,0,5.89.91,7.86,2.73,1.96,1.82,2.95,4.18,2.95,7.07,0,2.05-.51,3.85-1.54,5.39Zm-14.59-2.73h4.77c.75,0,1.38-.21,1.89-.63.51-.42.77-1,.77-1.75s-.26-1.31-.77-1.68c-.52-.37-1.15-.56-1.89-.56h-4.77v4.62Z" fill="#59bffa"/><path d="m1165.83,602.41c-1.32.66-1.28,2.08-1.63,3.2-4.46,14.24-14.53,22.05-28.72,25.13-9.71,2.11-19.42,2.18-29.16.06-15.56-3.38-26.44-12.35-32.3-27.13-3.25-8.18-5.42-16.72-5.47-25.59-.13-23.21-.23-46.42,0-69.62.08-8.24,1.39-16.41,3.66-24.4,4.79-16.9,13.31-30.75,30.46-38.83-3.33-.05-6.66-.12-9.99-.14-5.93-.04-11.87.13-17.79-.11-5.28-.21-6.2-1.2-6.39-6.56-.19-5.41-.19-10.83,0-16.24.19-5.29,1.1-6.11,6.48-6.49,2.57-.18,5.15-.08,7.73-.08,60.08,0,120.17,0,180.25,0,2.32,0,4.64.06,6.96-.03,6.39-.24,6.68-.51,7.56-7.08,1.51-11.34,4.15-22.29,10.61-32,8.83-13.28,21.93-19.12,37.09-21.06,11.64-1.49,23.15-.43,34.41,3.07,4.83,1.5,8.12,3.89,8.37,9.61.24,5.39,1.46,10.72,1.97,16.1.4,4.25-.79,5.22-4.91,3.83-7.87-2.65-15.83-4.55-24.19-4.65-4.17-.05-8.2.64-12.22,1.66-13.72,3.5-18.07,14.75-19.44,25.16-.52,3.93.84,5.18,5.67,5.27,6.71.13,13.38.49,20.06,1.13,23.49,2.25,36.87,15.83,38.92,39.42.87,10.04.94,20.02.08,30.08-1.93,22.57-14.41,36.66-36.76,40.31-11.34,1.85-22.61,1.25-33.44-3.23-11.13-4.61-18.73-12.56-22.68-23.91-2.3-6.61-3.72-13.41-3.77-20.44-.06-9.28-.11-18.57-.14-27.85,0-3.21-.89-5.69-4.67-5.7-11.73-.03-23.45-.01-35.48.56,15.58,7.77,19.75,21.04,19.31,36.8-.46,16.57-6.35,25.02-21.83,30.89.03,1.39,1.3,1.25,2.06,1.48,16.93,5.13,24.76,17.53,27.24,34.12,2.07,13.86,2.14,27.81-.06,41.62-3.45,21.68-15.61,37.02-39.31,40.62-10.39,1.58-20.57,1.2-30.64-1.61-12.16-3.4-21.08-10.55-25.46-22.73-.52-1.45-1.14-2.86-1.76-4.27-.08-.18-.41-.24-.66-.37Zm-62.95-63.72h-.15c0,9.53-.04,19.07.02,28.6.02,3.6-.06,7.26.53,10.8,1.1,6.63,2.56,13.32,8.28,17.76,12.58,9.76,31.19,3.5,35.09-11.86,1.52-5.99,2.25-12.14,2.24-18.37,0-4.63.19-9.27.47-13.9.17-2.91,1.63-4.9,4.82-4.91,7.73-.04,15.46-.05,23.18.02,3.15.03,4.4,1.97,4.81,4.93.75,5.37,1.05,10.76,1.14,16.18.09,5.15.22,10.29,1.72,15.31,3.89,13.07,11.78,17.78,24.88,17.15,12.39-.59,19.7-8.02,20.67-20.8.65-8.45.66-17.04-.05-25.48-1.32-15.73-9.1-22.82-24.99-23.82-4.11-.26-8.25-.11-12.36-.41-5.8-.42-6.82-1.38-7.03-6.93-.2-5.4-.21-10.83,0-16.23.21-5.26,1.08-6.14,6.54-6.38,5.17-.23,10.28-.88,15.33-1.88,5.61-1.11,10.64-3.95,12.25-9.51,2.86-9.83,3.4-19.88-2.55-29.04-4.17-6.43-10.69-9.65-17.84-11.36-19.58-4.7-39.32-5.28-58.92-.46-15.58,3.83-26.32,13.65-31.95,28.76-3.71,9.96-6.02,20.25-6.14,30.93-.11,10.31-.02,20.61-.02,30.92Zm239.44-66.14s-.03,0-.04,0c0-4.36.4-8.77-.08-13.08-.95-8.56-5.95-13.37-14.57-14.24-4.07-.41-8.22-.4-12.32-.24-5.6.22-6.59,1.17-6.66,7.04-.12,9.24.06,18.49.16,27.74.03,2.58.55,5.09,1.42,7.54,3.05,8.55,9.41,12.43,18.62,11.28,7.76-.97,12.54-5.94,13.41-14.49.39-3.81.07-7.69.07-11.54Z" fill="#59bffa"/><path d="m782.79,517.22c-.17-1.95-1.27-2.21-2.1-2.69-8.01-4.58-12.14-11.79-13.48-20.61-2.22-14.62-2.21-29.35.16-43.9,3.96-24.28,19.2-36.26,43.3-38.96,7.99-.89,16.01-.14,23.83,1.64,13.3,3.03,23.26,10.53,29.62,22.77,6.25,12.02,7.85,25.07,8.17,38.23.45,18.55.4,37.13,0,55.68-.34,16.06-3.03,31.76-9.18,46.77-7.87,19.21-21.26,33.2-39.52,42.81-15.83,8.34-33,11.88-50.53,13.12-20.08,1.41-40.21.87-59.9-4.24-16.7-4.33-32.01-11.24-44.72-23.36-16.09-15.33-23.57-34.65-27.01-56.03-1.27-7.93-1.61-15.87-1.58-23.88.08-17.27.09-34.55.05-51.82-.02-8.05,1.11-15.94,3-23.71,5.39-22.19,18.25-33.94,40.91-37.43,10.35-1.59,20.56-1.05,30.53,2.38,14.76,5.08,24.3,15.12,28.38,30.19,1.89,6.98,3.19,14.07,3,21.37-.41,15.42,1.39,30.93-2.36,46.21-1.01,4.12-.03,5.33,4.13,5.4,11.74.19,23.49.07,35.29.07Zm-109.11,6.25c-1.43,6.43.42,12.43,1.05,18.42,3.04,29.01,22.24,49.72,50.78,56.03,18.43,4.07,36.85,4.14,55.28,1.06,13.62-2.27,26.41-6.89,36.84-16.59,13.7-12.74,19.59-29.04,20.15-47.07.71-22.66.18-45.37.22-68.05,0-4.17-.75-8.22-1.81-12.2-2.4-9.01-9.01-14.1-17.98-14.08-9.08.02-15.13,4.94-17.5,14.44-.56,2.23-.87,4.58-.89,6.87-.09,11.08-.29,22.18.02,33.25.37,12.84,4.31,17.75,16.74,21.47,3.15.94,5.02,2.4,5.03,5.8.01,5.67.23,11.35,0,17.01-.2,4.66-1.31,5.83-6.29,5.85-23.72.14-47.44.14-71.15.02-5.35-.03-6.16-1.14-6.6-6.41-.31-3.71.44-7.53-.63-11.63-16.37,17.06-47.85,18.48-63.26-4.19Zm38.89-43.39c.02-9.76.52-18.28-1.98-26.53-2-6.6-5.86-11.46-13.08-12.59-7.01-1.09-13.32.27-18.11,5.99-2.72,3.25-3.83,7.19-4.75,11.23-2.63,11.43-1.01,23.04-1.65,34.54-.48,8.63,4.38,13.25,11.28,16.55,3.51,1.68,7.38,2.17,11.27,2.18,8.39.02,13.32-3.88,15.66-11.98,1.97-6.82,1.17-13.77,1.37-19.38Z" fill="#59bffa"/><path d="m1032.07,527.63c0,10.31.05,20.62-.01,30.93-.06,9.66-2.2,18.91-5.75,27.85-5.55,13.97-15.44,23.75-29.48,28.82-19.1,6.9-38.45,6.77-57.58-.02-14.75-5.24-24.52-15.64-30.03-30.23-3.97-10.51-5.55-21.49-5.78-32.58-.36-17.26-.28-34.54-.03-51.8.13-9.02,1.52-17.96,4.04-26.68,5.52-19.1,17.66-31.8,36.85-37.16,15.98-4.46,32.12-4.29,48.09.28,19.28,5.52,31.09,18.5,36.42,37.55,2.09,7.45,3.39,15.07,3.32,22.88-.09,10.05-.02,20.1-.02,30.16h-.04Zm-33.21,3.25c0-12.94.07-21.95-.02-30.95-.07-6.75-1.39-13.3-3.89-19.57-2.16-5.44-5.74-9.74-10.89-12.6-18.82-10.42-40.34-.93-45.2,19.96-.64,2.74-1.16,5.57-1.23,8.37-.5,20.58-.5,41.17-.02,61.76.15,6.27,2.24,12,4.67,17.77,7.74,18.43,41.51,16.49,49.14,3.92,2.71-4.47,4.86-9,5.97-14.1,2.77-12.75.97-25.66,1.47-34.55Z" fill="#59bffa"/><path d="m1326.79,90.4c14.5,8.99,17.29,22.49,16.46,37.38-.84,15-6.69,26.9-22.31,31.45.87,2.44,2.66,2.41,4,2.83,15.16,4.82,23.12,15.88,26.06,30.8,2.82,14.3,2.67,28.67-.71,42.96-4.04,17.08-14.26,28.81-30.23,35.71-5.95,2.57-12.13,4.39-18.56,5.19-28.07,3.52-54.96.34-80.07-13.76-5.57-3.12-8.4-6.87-8.18-13.42.19-5.63-.71-11.29-1.03-16.95-.11-2-.84-4.45,1.09-5.77,2.14-1.46,3.84.69,5.46,1.75,9.78,6.42,20.32,11.08,31.55,14.31,13.35,3.84,26.98,4.42,40.62,2.95,16.59-1.79,26.85-13.35,27.54-30.12.27-6.69.32-13.37-1.53-19.95-2.44-8.66-7.69-14.34-16.4-16.87-5-1.46-10.07-2.02-15.26-2.08-11.59-.13-23.2.29-34.76-1.04-5.56-.64-6.17-1.07-6.36-6.56-.19-5.41.03-10.82-.05-16.24-.06-4.2,1.95-5.78,6.05-6.21,9-.95,18.02-.75,27.03-.94,5.4-.12,10.8-.01,16.09-1.6,8.45-2.53,13.74-7.76,15.23-16.62.91-5.39,1.1-10.81.18-16.16-1.8-10.45-7.88-17.01-18.35-19.5-5.07-1.2-10.17-1.55-15.34-1.55-16.24,0-32.48.04-48.71-.03-8.58-.04-9.32-.8-9.49-9.21-.09-4.64.03-9.28.05-13.92.02-4.03,1.91-6.27,6.07-6.33,2.58-.04,5.15-.1,7.73-.1,39.44,0,78.87,0,118.31,0,1.8,0,3.61,0,5.41,0,10.54-.05,10.77-.29,12.08-10.42.43-3.31.98-6.64,1.83-9.86,5.85-22.06,19.43-35.76,42.5-39.38,12.46-1.95,24.6-1.05,36.7,2.39,5.65,1.6,8.88,4.68,9.16,10.77.18,3.85.95,7.66,1.4,11.5.92,7.93-.11,8.84-7.56,6.44-8.43-2.71-17.01-4.2-25.88-3.49-15.76,1.26-25.65,11.16-27.09,26.66-.35,3.74.88,5.39,4.51,5.32,7.23-.14,14.41.52,21.6,1.13,21.31,1.81,34.68,14.17,37.88,35.14,1.99,13.08,2.25,26.18,0,39.25-3.38,19.7-15.13,31.56-34.85,35.28-7.41,1.4-14.92,1.46-22.32.28-21.31-3.39-33.92-16.02-37.65-37.38-1.02-5.84-1.71-11.72-1.62-17.68.09-6.18.09-12.37-.02-18.56-.13-7.02-.69-7.69-7.4-7.77-10.3-.13-20.59-.03-30.89-.03Zm104.68,25.84c-.17-4.22.3-8.87-1.04-13.43-2.33-7.91-6.68-11.82-14.76-12.46-4.36-.34-8.76-.16-13.13-.21-3.64-.04-5.93,1.37-5.89,5.4.1,9.53-.02,19.07.34,28.6.12,3.28,1.03,6.66,2.24,9.74,2.72,6.91,8.91,10.41,16.68,9.95,7.65-.45,12.04-4.18,14.28-11.85,1.47-5.05,1.21-10.2,1.28-15.75Z" fill="#19a3f5"/><path d="m1150.78,91.3c7.04,3.3,13.16,7.82,17.55,14.4,5.41,8.12,8.66,17.11,9.55,26.7,2.56,27.51,2.65,55.09.02,82.6-.88,9.24-3.55,18.18-7.63,26.64-7.33,15.18-18.9,25.68-34.78,31.11-22.94,7.85-46.13,8.02-69.07.24-17.79-6.03-30.17-18.13-37.44-35.61-5.27-12.66-6.8-25.98-7.09-39.35-.45-20.6-1.48-41.25.89-61.81,1.4-12.17,4.33-23.8,12.35-33.63,3.97-4.86,9.43-7.71,15.85-12.31-8.03,0-14.37.09-20.71-.02-7.55-.14-8.47-1.03-8.66-8.49-.13-4.89.01-9.8.05-14.7.03-4.12,2.15-6.13,6.23-6.17,2.32-.02,4.64-.09,6.96-.09,29.91,0,59.82,0,89.74-.01,3.35,0,6.71.04,10.05-.21,9.38-.69,14.05-5.14,14.98-14.47,1.2-11.99-.71-23.64-4.22-35.09q-3.32-10.85,8.24-10.87c2.84,0,5.7.26,8.5-.05,6.18-.69,9.37,2.32,11.64,7.77,6.78,16.3,9.83,33.06,7.13,50.62-2.46,15.99-10.55,27.19-27.17,30.79-.99.21-2.04.42-2.97,2.01Zm-5.71,77.1c-.63-14.32.9-28.51-1.67-42.6-3.63-19.87-14.67-31.7-33.14-34.87-4.85-.83-9.76-.69-14.65-.45-17.7.86-31.3,11.52-36.25,28.55-2.31,7.95-3.41,16.11-3.41,24.41.01,15.46.08,30.92-.05,46.38-.06,6.99.35,13.93,1.64,20.77,4.26,22.52,16.84,35.99,41.06,35.89,2.06,0,4.12,0,6.18-.06,19.1-.63,31.45-10.06,36.88-28.27.81-2.7,1.3-5.51,1.84-8.28,2.67-13.8.87-27.76,1.56-41.45Z" fill="#19a3f5"/><path d="m946.53,164.83c-.54-16.6-.34-32.71-7.72-47.77-5.67-11.57-14.8-19.03-26.84-22.95-6.87-2.23-14.02-3.57-21.28-3.61-22.43-.12-44.86-.09-67.29-.08-1.17,0-2.56-.46-3.73,1.21,18.14,9.71,22.82,26.69,24.03,45.34,1.85,28.58,1.73,57.17-.02,85.75-.59,9.61-2.72,18.87-6.74,27.64-5.82,12.7-15.39,20.98-28.92,24.82-12.55,3.57-25.03,3.19-37.37-.5-14.23-4.25-23.36-13.67-26.74-28.51-2.24,1.01-2.04,3-2.55,4.51-4.21,12.51-13.03,20.32-25.39,23.93-16.04,4.68-32.17,4.37-47.84-1.66-14.68-5.66-23-17.02-26.3-32.07-2.63-11.96-2.53-24.07-.17-36.08,1.88-9.6,6.53-17.81,13.18-24.97,8.15-8.79,17.85-15.54,27.91-21.88,6.76-4.26,13.53-8.52,20.08-13.09,9.95-6.94,15.46-16.38,15.19-28.8-.09-4.12.11-8.27-.27-12.36-1-10.82-7.78-17.09-18.82-17.74-11.25-.66-19.13,4.43-21.27,14.78-2.54,12.28-1.64,24.61,1.25,36.79q2.81,11.82-9.53,11.81c-4.13,0-8.25.08-12.37-.04-5.93-.17-6.95-.89-8.98-6.52-1.76-4.86-2.77-9.92-3.48-15.04-1.47-10.53-1.62-21.06.18-31.57,3.77-21.98,15.53-34.31,37.36-38.92,10.72-2.27,21.54-2.26,32.23.18,19.52,4.45,31.72,16.27,35.63,36.18,2.26,11.52,1.99,23.04.04,34.56-2.82,16.64-13.09,28.31-25.94,38-8.43,6.35-17.42,11.97-26.1,18-4.02,2.79-7.98,5.68-11.82,8.71-12.63,9.96-14.65,26.03-10.46,39.3,3.05,9.66,12.64,13.59,23.9,13.16,16.18-.61,23.94-8.41,25.72-25.14.76-7.17.99-14.4,1.6-21.58.46-5.36,1.23-6.2,6.6-6.4,5.92-.23,11.86-.16,17.79-.07,7.69.11,8.44.85,8.71,8.35.26,7.46-.18,14.97,1.39,22.35.21,1.01.29,2.04.47,3.06,3.75,20.45,21.31,22.08,33.52,17.7,5.97-2.14,9.34-7.13,11.51-12.87,2.59-6.84,3.33-14.08,3.39-21.28.19-22.69.2-45.38,0-68.06-.07-7.98-1-15.95-3.1-23.71-4.55-16.77-15.18-25.6-32.53-27.11-1.28-.11-2.58-.08-3.86-.19-5.91-.52-6.68-1.16-6.84-6.94-.16-5.67,0-11.34,0-17.01,0-3.47,1.78-5.24,5.15-5.44,2.31-.14,4.64-.18,6.96-.18,36.1,0,72.19-.12,108.29.06,13.41.07,26.75,1.25,39.79,4.82,27.05,7.4,43.93,24.74,51.16,51.7,2.89,10.75,4.57,21.67,4.54,32.84-.04,22.17-.01,44.35,0,66.52,0,8.3-1.15,16.45-3.31,24.45-5.66,20.95-19.31,32.93-40.78,35.79-9.78,1.3-19.49.78-29.14-1.74-15.92-4.17-25.77-14.44-30.89-29.68-4.79-14.24-4.72-58.44.02-72.8,7.52-22.78,32.65-33.73,54.53-23.73,5.06,2.31,8.93,6.01,12.12,10.52,1.14,1.61,1.43,3.85,4.17,5.3Zm-40.98,44.44c.05,8.73-.43,16.45,1.64,24.02,2.53,9.23,8.27,13.9,17.73,14.24,10.64.38,17.77-5.4,20.1-16.29,2.62-12.21,1.53-24.59,1.55-36.9.02-9.88-7.71-17.76-17.81-18.82-12.47-1.31-19.13,3.02-22.02,14.05-1.79,6.85-.9,13.81-1.19,19.69Z" fill="#19a3f5"/><path d="m725.46,318.13c.71-15.98,4.53-31.11,11.85-45.31,1.06-2.05,2.34-4.01,3.73-5.85,1.37-1.83,3.02-1.73,4.51,0,.5.58,1,1.19,1.39,1.85,11.11,19.07,16.38,39.45,13.05,61.5-1.45,9.6-7.68,14.17-17.35,14-7.56-.13-12.69-3.79-15.09-10.93-.65-1.94-1.09-3.99-1.34-6.03-.38-3.06-.5-6.15-.74-9.23Z" fill="#19a3f5"/><path d="m1850.11,163.84c.96-16.25.28-31.25-6-45.46-4.92-11.14-13.3-18.83-24.74-23.13-7.56-2.84-15.44-4.5-23.43-4.59-25-.27-50-.1-74.91-.1-.55.45-.63.99-.11,1.28,17.43,9.85,22.74,26.36,24.65,44.75,1.44,13.88,1.22,27.8,1.21,41.72-.02,27.85,0,55.7-.02,83.55-.01,11.19-.07,11.21-11.16,11.24-4.64.01-9.28.04-13.92,0-8.85-.09-9.27-.48-9.36-9.05-.07-6.7-.02-13.41-.02-20.11,0-30.69.02-61.37,0-92.06,0-10.84-.6-21.65-2.93-32.28-4.07-18.58-16.58-28.81-35.65-29.17-3.85-.07-7.78-.04-11.55.64-16.25,2.93-26.52,14.44-29.37,32.62-1.16,7.39-1.74,14.82-1.72,22.33.09,37.39.04,74.78.04,112.17,0,2.06.03,4.13-.01,6.19-.16,8.12-.65,8.63-8.95,8.72-6.45.06-12.9.14-19.34-.08-4.89-.17-5.65-1.1-6.11-6.04-.14-1.54-.09-3.09-.09-4.64,0-36.36-.04-72.72.03-109.08.02-12.67,1.08-25.22,5.39-37.3,3.41-9.55,8.95-17.35,17.73-22.68.83-.5,1.88-.86,1.99-2.51-2.35-.89-4.9-.42-7.36-.47-5.16-.1-10.31-.05-15.47-.14-3.3-.06-5.44-1.54-5.46-5.1-.04-6.44-.04-12.89.02-19.33.03-3.2,2.04-4.56,4.97-4.75,2.31-.15,4.64-.18,6.96-.18,60.86,0,121.71-.09,182.57.07,12.36.03,24.7.95,36.85,3.71,29.27,6.66,47.34,24.82,55.21,53.43,2.88,10.47,4.45,21.21,4.52,32.08.13,21.14.1,42.29.08,63.43,0,8.28-1.06,16.47-2.89,24.53-5.54,24.39-21.12,37.63-46.07,39.37-8.04.56-16-.17-23.81-2.01-18.76-4.41-31.82-19.83-34.22-40.36-2.01-17.22-1.95-34.48.07-51.7.42-3.56,1.21-7.14,2.33-10.55,7.5-22.86,33.53-33.86,55.3-23.45,3.05,1.46,5.88,3.3,8.09,5.87,2.13,2.48,4.03,5.16,6.69,8.6Zm-39.61,46.4s-.06,0-.09,0c0,5.15-.04,10.31.01,15.46.03,3.1.5,6.14,1.56,9.09,3.1,8.66,8.74,12.64,18.19,12.72,8.71.07,14.71-3.96,17.9-12.05,1.53-3.88,2.29-7.92,2.32-12.08.07-10.05.1-20.09.12-30.14,0-2.32-.2-4.6-1.26-6.77-4.14-8.4-14.57-12.85-25.19-10.67-8.08,1.65-12.93,7.68-13.5,17.44-.33,5.65-.06,11.33-.06,17Z" fill="#19a3f5"/><path d="m1879.59,312.22c11.6-18.45,37.21-22.8,53.1-10.43,5.74,4.47,9.53,10.46,10.72,17.44,3.39,19.8,3.39,39.5-3.94,58.64-.46,1.2-1.07,2.34-1.62,3.51-1.2,2.57-3.2,4.06-6.04,4.11-5.41.09-10.84.29-16.23,0-4.15-.23-5.09-1.72-3.25-5.61,6.35-13.48,6.7-27.92,7.28-42.34.14-3.38-.35-6.69-1.32-9.92-1.93-6.42-5.03-8.61-11.98-8.53-6.68.08-10.42,2.67-11.93,8.76-1.18,4.76-1.7,9.63-1.7,14.56,0,6.96,0,13.93-.23,20.88-.19,5.73-1.12,6.58-6.93,6.86-3.6.17-7.22.18-10.82-.01-5.9-.32-7.04-1.42-7.24-7.59-.27-8.24-.17-16.5-.35-24.75-.06-2.82-.2-5.7-.83-8.43-1.86-8.07-5.67-10.79-13.79-10.24-6.92.47-10.56,3.47-10.99,10.52-.99,16.26-1.21,32.51,5.28,47.98.4.95.74,1.92,1.12,2.88,1.12,2.8.26,4.76-2.77,4.88-5.66.23-11.33.17-17,.07-3.3-.06-4.87-2.45-6.17-5.12-3.44-7.04-5.13-14.54-6.14-22.26-1.54-11.82-1.82-23.62.18-35.42,3.3-19.46,16.9-28.64,37.43-27.71,11.38.51,21.19,4.58,26.15,17.27Z" fill="#19a3f5"/><path d="m2028.44,60.8c28.35,0,56.7,0,85.05,0,2.06,0,4.13.06,6.18-.03,6.07-.25,6.38-.5,7.53-6.4.79-4.04,1.31-8.14,2.22-12.16,5.67-25.08,21.67-39.35,47.11-41.81,10.86-1.05,21.59-.04,32.12,3.08,5.48,1.62,9.03,4.37,9.4,10.55.3,5.13,1.39,10.21,1.77,15.34.31,4.18-1.08,5.32-5.07,3.85-5.37-1.97-10.84-3.3-16.46-4.08-6.43-.89-12.82-.81-19.17.88-11.83,3.16-20.18,13.94-20.3,26.15-.04,4.14,2.65,4.59,5.64,4.53,7.23-.13,14.42.41,21.59,1.27,9.38,1.12,18.12,3.96,25.22,10.56,7.36,6.85,10.52,15.76,11.96,25.37,1.84,12.31,1.86,24.66.05,36.97-2.59,17.63-13.35,33.17-34.5,36.44-12.22,1.89-24.11,1.62-35.7-3.09-10.65-4.32-17.83-11.97-21.82-22.68-2.72-7.31-4.19-14.88-4.34-22.67-.15-7.73-.09-15.46-.14-23.19-.06-9.24-.09-9.27-9.66-9.33-2.06-.01-4.12,0-6.19,0-56.7,0-113.39,0-170.09,0q-12.08,0-12.1-11.8c0-3.87-.12-7.74.08-11.59.26-4.84,1.12-5.64,6.08-6.08,2.3-.2,4.64-.11,6.95-.11,28.86,0,57.73,0,86.59,0Zm129.88,49.78c.13,7.42-.67,14.92,1.78,22.17,2.53,7.51,8.22,11.39,16.49,11.13,8.19-.26,13.36-4.54,15.12-12.71,2.03-9.43,1.98-18.89-.06-28.31-1.53-7.07-6.02-11.35-13.13-12.24-4.82-.6-9.74-.38-14.61-.44-3.82-.05-5.61,1.98-5.59,5.75.02,4.88,0,9.76,0,14.65Z" fill="#19a3f5"/><path d="m2078.78,200.03c.25-15.23-.37-28.87-3.04-42.33-2.17-10.94-5.88-21.34-11.46-31.06-3.51-6.11-3.02-7.07,3.72-7.21,6.44-.13,12.9.16,19.34-.09,4.69-.18,7.74,1.75,10.13,5.63,8.41,13.67,12.95,28.56,14.48,44.44,1.83,19.04,1.93,38.09.06,57.12-.45,4.6-1.13,9.23-2.25,13.71-5.56,22.14-21.47,34.97-45.82,37.09-8.28.72-16.46-.09-24.55-2.03-13.69-3.28-23.29-11.54-29.87-23.78-5.82-10.83-8.65-22.58-11.02-34.49-1.36-6.85-3.06-13.6-6.04-19.93-3.82-8.12-9.41-11.38-17.84-10.64-7.43.65-11.92,4.61-14.44,12.98-.66,2.2-1.16,4.52-1.29,6.81-1.12,20.54.56,40.71,8.27,60.04.57,1.44,1.12,2.88,1.63,4.34,1,2.89-.23,4.77-3.08,4.84-8.5.21-17,.21-25.5.06-3.69-.07-5.01-3.14-6.33-6.01-4.02-8.75-6.48-17.99-7.66-27.47-1.85-14.86-2.84-29.79-.35-44.7,2.77-16.58,9.4-30.69,25.9-37.7,9.63-4.09,19.86-5.31,30.33-4.3,20.6,1.98,34.23,12.84,41.5,32.07,2.93,7.75,4.85,15.75,6.52,23.84,1.67,8.09,3.5,16.12,7.49,23.48,3.45,6.36,8.63,10.11,15.8,11.06,10.29,1.37,18.27-3.23,22.09-12.91,2.39-6.07,3.02-12.51,3.25-18.96.19-5.15.04-10.31.04-13.93Z" fill="#19a3f5"/><path d="m2000.15,124.58c-.04-5.69.17-11.34,1.7-16.85,2.39-8.67,8.41-13.33,16.74-13.08,8.09.24,13.8,4.84,15.65,13.39,2.42,11.19,2.46,22.52,0,33.71-1.95,8.87-7.98,13.56-16.36,13.48-8.04-.08-13.63-4.6-15.98-13.05-.55-1.98-1.02-4.01-1.19-6.05-.32-3.84-.39-7.7-.56-11.55Z" fill="#19a3f5"/><path d="m2075.7,516.1c-5.85,0-11.69.05-17.54-.01-8.78-.09-9.32-.62-9.41-9.08-.05-4.38-.11-8.77.04-13.15.21-6.28.98-7.17,7.28-7.25,12.89-.16,25.78-.03,38.67-.08,15.82-.05,14.47,1.42,14.52-14.64.02-6.19.07-12.38-.02-18.56-.12-7.42-.62-7.99-7.92-8.04-13.15-.1-26.3-.03-39.45-.04-2.06,0-4.13.07-6.19-.05-5.8-.33-6.69-1.11-6.88-6.87-.18-5.41-.18-10.83.01-16.24.18-5.03,1.03-5.84,5.85-6.3,2.3-.22,4.64-.12,6.96-.12,29.13,0,58.27,0,87.4-.01,2.84,0,5.68.04,8.5-.13,11.32-.66,16.11-5.6,16.61-17.09.48-10.93-1.19-21.55-4.4-32-3.49-11.35-3.35-11.39,8.43-11.41,1.29,0,2.58,0,3.87,0,12.8,0,12.81.09,17.38,11.82,6.33,16.25,8.44,32.98,4.86,50.07-3.68,17.55-15.87,27.45-33.88,28.2-6.69.28-13.41,0-20.11.2-5.84.17-6.71.97-6.83,6.84-.18,8.76-.14,17.53-.04,26.3.09,7.32.75,8,7.98,8.06,13.15.1,26.3.03,39.45.04,2.06,0,4.13-.06,6.19.05,5.8.31,6.7,1.11,6.92,6.85.18,4.89.16,9.8.02,14.69-.18,6.67-1.09,7.68-7.63,7.9-6.39.21-12.79.04-18.76.04-.89,1.6-.37,2.22.25,2.68,9.96,7.39,14.88,17.43,15.99,29.65,1.1,12.1,1.59,24.2-.4,36.22-4.34,26.15-18.89,41.3-44.87,46.72-14.28,2.98-28.7,3.01-43.01.3-27.48-5.21-42.59-20.86-46.63-48.49-1.64-11.25-1.31-22.66-.21-33.95,1.25-12.79,5.78-24.05,17.41-31.33-.14-.58-.28-1.17-.42-1.75Zm84.67,43.44c-.09,0-.18,0-.27,0,0-5.92.51-11.9-.1-17.76-1.5-14.34-11.5-24.05-25.82-25.31-5.11-.45-10.32-.45-15.44-.03-13.32,1.08-22.78,9.11-25.49,22.08-2.88,13.76-2.87,27.7-.06,41.47,2.12,10.41,8.5,17.42,18.83,20.56,7.81,2.37,15.72,2.64,23.69,1.07,15.66-3.08,23.71-12.23,24.62-28.18.26-4.62.04-9.27.04-13.91Z" fill="#59bffa"/><path d="m2396.01,502.26c-.52,19.34.72,39.44-1.09,59.52-.77,8.53-2.19,16.83-4.85,24.96-8.14,24.86-25.29,39.47-50.77,44.37-14.53,2.8-29.12,2.94-43.76.24-29.68-5.49-47.44-23.2-54.12-52.33-2.08-9.06-3.11-18.31-3.18-27.6-.14-17.78-.32-35.58.05-53.35.28-13.41,1.64-26.74,7.17-39.29,1.89-4.28,4.19-8.29,6.92-12.04,2.31-3.18,2.38-5.54-.54-8.72-25.53-27.83-13.27-71.19,22.95-81.63,21.31-6.14,42.79-6.1,64.18-.78,23.56,5.86,39.19,20.91,47.81,43.33,5.02,13.08,7.29,26.71,8.22,40.74,1.36,20.61.63,41.22,1.02,62.57Zm-123.52,21.71c.37,13.9-.66,27.57,1.59,41.17,3.65,22.04,16.83,36.65,40.66,36.2,2.83-.05,5.68.01,8.5-.16,17.41-1.04,28.86-9.85,34.27-26.39,1.36-4.17,2.16-8.46,2.75-12.82,2.34-17.47.82-35.02,1.32-52.52.24-8.54-.49-16.99-1.56-25.44-2.72-21.38-15.17-34.28-36.45-36.61-14.88-1.63-28.85.84-39.54,12.82-5.91,6.62-8.29,14.68-9.89,23.14-2.57,13.56-1.2,27.25-1.65,40.62Zm93.88-86.06c-2.74-16.43-6.1-32.03-19.21-43.5-.39-.34-.79-.66-1.22-.95-18.4-12.87-38.45-13.99-58.9-6.84-12.39,4.33-17.15,19.26-11.34,31.09,2.52,5.13,4.49,6.23,9.76,4.05,12.52-5.18,25.58-5.74,38.76-4.92,14.66.91,27.68,5.68,37.43,17.39,1.08,1.3,1.84,3.15,4.71,3.68Z" fill="#59bffa"/><path d="m2461.97,525.21c-.66,10.51-.97,20.73.56,31.01,3.98,26.86,19.4,40.6,47.33,43.17,5.12.47,10.31.19,15.45.49,5.93.35,6.84,1.4,5.86,7.09-1.05,6.09-2.45,12.12-3.73,18.16-.64,3.05-2.19,5.3-5.61,5.36-24.35.46-47.97-1.94-67.93-18-11.06-8.9-17.31-20.83-21.31-34.2-4.27-14.24-5.06-28.91-5.4-43.58-.41-17.51-.27-35.04-.03-52.56.14-9.77.74-19.57,2.74-29.19,5.25-25.33,19.54-38.68,44.94-41.81,9.02-1.11,18.02-.53,26.84,1.79,17,4.47,27.46,15.62,32.19,32.27,1.33,4.69,2.5,9.58,2.66,14.41.5,15.43,1.4,30.89-.88,46.29-.69,4.62-1.89,9.09-3.68,13.38-4.32,10.37-11.69,17.49-22.67,20.43-9.41,2.52-18.86,2.43-28.22-.34-8-2.37-13.95-7.49-19.09-14.19Zm-.97-45.89c0,4.96-.03,8.82,0,12.69.09,10.5,5.36,17.68,15.62,19.98,15.71,3.53,25.05-2.92,26.35-17.36,1.1-12.17.92-24.19-.56-36.23-1.27-10.34-7.92-16.92-17.39-17.62-11.44-.84-18.95,4.36-22.06,15.06-2.35,8.08-1.82,16.34-1.97,23.48Z" fill="#59bffa"/><path d="m1516.75,517.07c-2.23-1.79-4.88-.87-7.34-.96-4.38-.16-8.78.12-13.14-.14-4.89-.29-6.08-1.33-6.31-5.98-.29-5.91-.1-11.85-.05-17.78.03-3.79,2.05-5.63,5.82-5.61,2.06,0,4.12-.05,6.19-.05,13.67-.01,27.33.07,40.99-.06,6.36-.06,7.16-.88,7.28-7.2.16-8.76.15-17.53.01-26.3-.11-6.84-.86-7.63-7.59-7.68-13.66-.12-27.33-.04-40.99-.05-2.06,0-4.12-.06-6.19-.08-3.4-.02-5.42-1.67-5.47-5.11-.08-6.44-.07-12.88.08-19.32.07-3.06,1.99-4.65,4.97-4.84,2.57-.16,5.15-.22,7.73-.22,30.17-.02,60.34-.3,90.5.09,19.9.26,25.9-7.62,26.14-26,.08-6.16.7-12.39-1.16-18.44-1.97-6.4-5.81-9.38-12.4-9.58-7.91-.25-12.73,3.7-13.58,11.65-.74,6.94-.45,13.89.69,20.81,1.13,6.84.5,7.6-6.47,7.78-5.15.13-10.31-.06-15.47.03-3.86.07-6.37-1.51-7.5-5.27-4.52-15.1-4.69-30.11,2.26-44.48,5.7-11.78,16.57-16.64,28.74-18.47,8.93-1.34,17.98-1.15,26.88,1.12,13.01,3.33,21.75,11.34,26.21,23.94,1.11,3.14,1.9,6.45,2.31,9.76,1.79,14.13,2.11,28.31-.76,42.32-4.41,21.53-19.55,33.9-41.48,34.31-5.41.1-10.83-.07-16.24.07-6.05.16-6.79.8-6.88,6.65-.15,9.28-.15,18.56,0,27.84.1,5.89.83,6.45,6.83,6.72,1.8.08,3.61.03,5.41.03,12.89,0,25.78-.04,38.67.02,9.13.05,9.49.46,9.56,9.7.04,4.38.12,8.77-.06,13.15-.21,5.36-1.06,6.29-6.37,6.59-4.37.25-8.77-.03-13.14.11-2.48.08-5.09-.71-7.42.71,0,.35-.1.73.01.81,13.39,9.32,17.54,22.84,17.63,38.32.05,9.26-.63,18.56,1.52,27.73,2.54,10.85,9.03,16.47,19.98,17.07,10.42.57,17.95-4.76,20.71-14.85,1.5-5.5,1.94-11.14,1.93-16.85-.04-25.01-.03-50.02.08-75.03.05-11.69,2.09-23.14,5.83-34.17,9.5-28.01,29.83-42.93,58.45-47.5,15.17-2.42,30.28-2.2,45.34,1.02,28.03,5.98,46.23,22.6,54.41,50.08,3.18,10.69,4.79,21.68,4.89,32.79.23,25.01.12,50.02.07,75.03-.01,7.51-1.19,14.9-2.93,22.19-5.79,24.17-20.87,36.99-45.68,38.82-5.4.4-10.83.4-16.21-.39-24.78-3.63-39.13-18.27-42.25-43.17-2.09-16.71-1.74-33.43.14-50.14.32-2.8.99-5.59,1.73-8.32,6.57-24.45,31.5-36.46,54.88-26.55,6.4,2.71,10.73,7.72,14.54,13.25,2.46-1.47,1.64-3.49,1.62-5.12-.11-11.06.59-22.15-1.86-33.12-5.15-23.08-19.91-35.65-43.43-36.52-6.17-.23-12.32-.13-18.49.93-19.41,3.35-30.27,15.35-34.77,33.83-2.39,9.82-2.91,19.89-2.98,29.94-.16,23.46-.1,46.92-.1,70.39,0,6.73-.71,13.35-2.38,19.9-6.94,27.15-27.39,37.65-53.15,34.75-12.09-1.36-22.07-6.63-28.92-17.16-2.64-4.05-3.3-4.14-6.35-.91-17.06,18.09-39.16,20.18-62.02,19.51-5.62-.17-11.27-1.32-16.8-2.48-23.89-4.99-39.49-21.69-42.93-45.84-1.87-13.09-1.99-26.19-.1-39.3,1.46-10.08,5.55-18.7,13.55-25.28,1.09-.9,2.92-1.3,2.79-3.41Zm16.79,42.36c0,5.15-.41,10.34.08,15.45,1.46,15.21,10.21,24.6,25.18,27.07,6.63,1.09,13.31.92,19.97-.54,12.46-2.73,20.04-10.25,22.24-22.73,2.29-13.03,2.4-26.17-.11-39.18-2.61-13.47-11.83-21.59-25.5-22.99-5.14-.53-10.3-.54-15.44.02-13.84,1.5-21.92,8.66-25.41,22.16-1.77,6.86-1.08,13.83-.99,20.77Zm281.28,5.84c0-6.4.08-11.3-.02-16.2-.22-10.77-7.49-18.11-18.47-18.77-12.71-.76-20.01,4.33-21.21,16.11-1.3,12.82-1.27,25.78.05,38.61.99,9.64,6.94,15.67,15.31,17.15,11.17,1.97,19.84-3.57,22.83-14.56,2.13-7.85,1.21-15.89,1.51-22.34Z" fill="#59bffa"/><path d="m1937.76,522.01c-1.09,13.59-.36,25.17,1.62,36.57,4.36,25.14,20.38,38.86,47.05,40.82,5.39.4,10.83.16,16.23.53,4.97.34,5.93,1.55,5.07,6.36-1.13,6.34-2.63,12.61-3.87,18.93-.71,3.61-2.87,5.31-6.45,5.37-18.99.3-37.62-1.45-54.95-10.08-17.79-8.85-28.1-23.74-33.47-42.38-3.01-10.44-4.78-21.11-4.79-32.02-.02-24.75-.08-49.5-.02-74.24.02-8.81,1.49-17.41,4.06-25.87,6.01-19.77,19.1-31.17,39.53-34.34,10.35-1.6,20.57-1.24,30.66,1.45,15.64,4.17,26.21,13.9,31.12,29.42,2.18,6.89,3.62,13.96,3.57,21.27-.07,11.08.05,22.17-.07,33.25-.1,8.89-2.1,17.4-6.19,25.32-4.74,9.17-12,15.27-22.23,17.69-7.4,1.75-14.86,1.83-22.27.61-10.55-1.75-18.4-7.66-24.6-18.66Zm42.16-42.07c.03-9.44.46-17.43-1.73-25.23-2.47-8.8-8.13-13.4-17.18-13.93-11.65-.68-18.99,4.76-21.87,16.22-2.93,11.65-1.44,23.53-2.03,35.31-.3,5.98,1.95,10.31,6.2,14.18,5.06,4.62,11,6.4,17.66,6.37,10.08-.04,15.1-4,17.74-13.7,1.86-6.84.98-13.8,1.22-19.23Z" fill="#59bffa"/><path d="m1789.64,702.19c-23.67.56-46.05-2.6-68.25-7.59-6.01-1.35-9.76-3.85-9.87-10.59-.06-4.09-1.08-8.16-1.45-12.27-.45-5.02.53-5.9,5.76-4.73,9.56,2.13,19.1,4.29,28.8,5.7,24.86,3.61,49.78,4.51,74.67.75,12.89-1.95,24.82-6.41,34.53-15.87,9.61-9.36,12.21-21.14,13.05-33.72.43-6.45-.44-12.85-1.08-19.26-.87-8.68-.07-9.5,8.36-9.64,4.38-.07,8.76.03,13.14.08,3.27.04,5.36,1.66,6.06,4.85,5.24,23.89,5.05,47.16-8.68,68.58-9.76,15.23-24.96,22.67-41.6,27.55-17.71,5.19-35.89,6.81-53.44,6.15Z" fill="#59bffa"/><path d="m2672.67,415.67c28.61,0,57.22,0,85.82,0,2.06,0,4.13.07,6.18-.06,5.22-.32,6.15-1.07,7.18-6.22.95-4.79,1.35-9.72,2.56-14.43,6.37-24.62,24.22-38.83,49.67-39.91,10.13-.43,20.03.59,29.78,3.51,5.34,1.6,8.35,4.57,8.72,10.27.27,4.1,1.05,8.17,1.49,12.27.81,7.51-.21,8.42-7.28,6.12-8.42-2.74-16.99-4.26-25.86-3.63-15.96,1.14-25.71,10.56-27.3,26.32-.47,4.69.04,5.62,4.78,5.65,7.23.04,14.41.6,21.6,1.22,20.82,1.78,34.25,14.2,37.44,34.72,2.04,13.07,2.32,26.17.12,39.25-3.38,20.13-15.16,32.14-35.28,35.7-9.21,1.63-18.47,1.39-27.61-.88-19.13-4.76-28.62-17.93-32.07-36.51-1.66-8.94-1.51-17.95-1.52-26.97,0-3.61.12-7.22-.08-10.82-.28-4.93-1.06-5.62-6.08-5.94-2.31-.15-4.64-.06-6.96-.06-57.73,0-115.46,0-173.2,0q-11.69,0-11.73-11.45c0-3.87.08-7.73.06-11.6-.02-4.06,1.86-6.28,6-6.4,2.32-.07,4.64-.12,6.96-.12,28.87,0,57.73,0,86.6,0Zm164.41,56.42c0-3.86.45-7.78-.09-11.56-1.4-9.84-6.62-14.63-16.37-15.37-3.84-.29-7.73-.29-11.58-.13-5.5.23-6.3.95-6.4,6.39-.15,8.49-.16,17,.14,25.49.13,3.56.84,7.2,1.92,10.6,2.37,7.44,8.62,11.47,16.6,11.21,7.99-.26,12.52-4.01,14.9-12.07,1.41-4.79,1.18-9.68.88-14.57Z" fill="#59bffa"/><path d="m2723,552.27c-.18-9.52.33-19.03-.83-28.55-1.84-15.03-6.04-29.19-13.4-42.46-3.03-5.47-2.22-6.76,3.94-6.94,6.44-.19,12.89.13,19.32-.1,4.71-.17,7.68,1.93,10.04,5.78,6.71,10.9,11.56,22.62,13.25,35.22,3.2,23.81,3.67,47.79.61,71.66-1.6,12.48-6.56,23.66-15.8,32.81-16.65,16.47-62.65,19.57-81.04-5.73-6.77-9.32-10.95-19.8-13.65-30.9-1.64-6.76-2.93-13.6-4.69-20.33-1.04-3.97-2.33-7.95-4.14-11.61-3.73-7.54-10.31-10.79-18.47-9.7-6.8.91-11.99,6.03-13.76,13.85-2.31,10.19-1.69,20.5-.87,30.78,1.04,13.2,4.46,25.84,9.24,38.16,1.92,4.96,1.2,6.17-3.92,6.36-7.46.27-14.94.01-22.41.1-4.37.05-6.34-2.6-7.87-6.17-5.04-11.72-8.11-23.93-8.6-36.66-.38-9.78-.25-19.58-.14-29.37.08-7.29,1.75-14.37,4.51-21.05,5.11-12.35,14.03-20.79,26.97-24.72,11.91-3.61,23.93-3.69,35.87-.49,12.01,3.22,21.09,10.37,26.97,21.51,5.11,9.69,7.91,20.08,10.08,30.72,1.86,9.08,3.77,18.14,8.62,26.3,4.28,7.2,10.55,10.26,18.65,10.14,9.3-.14,15.6-4.61,18.72-13.37,1.65-4.63,2.78-9.39,2.79-14.35.02-6.96,0-13.91,0-20.87Z" fill="#59bffa"/><path d="m2645.4,479.4c.17-5.29-.34-10.46.74-15.54,2.24-10.57,10.39-16.09,20.31-13.91,6.09,1.34,10.29,4.92,11.76,10.92,3.04,12.42,3.09,25,.09,37.41-1.85,7.68-7.28,11.48-15.21,11.79-7.36.29-13.35-3.83-15.96-10.96-2.36-6.47-1.45-13.22-1.73-19.71Z" fill="#59bffa"/><rect x="2494.3" y="-98.86" width="212.62" height="531.29" rx="26.48" ry="26.48" transform="translate(2767.4 -2433.82) rotate(90)" fill="#f6931a"/><path d="m2668.61,163.74c-.99-1.07-1.98-2.03-2.84-3.09-3.98-4.89-5.74-10.65-5.96-16.82-.2-5.4-.29-10.8.41-16.21,1.37-10.55,8.9-18.42,19.52-20.08,6.05-.95,12.05-.91,17.99.8,8.34,2.4,13.55,7.84,15.93,16.13,1.15,4.01,1.39,8.12,1.47,12.24.09,4.63.17,9.27-.21,13.89-.46,5.64-1.67,11.06-5.07,15.77-2.08,2.88-4.72,5.11-7.84,6.77-1.29.69-1.29.66-.04,1.6,4.53,3.41,8.15,7.51,10.03,12.97,1.31,3.79,1.49,7.71,1.4,11.67-.08,3.72-.51,7.38-1.64,10.97-2.18,6.92-6.77,11.41-13.57,13.7-6.39,2.15-12.96,2.36-19.58,1.55-5.08-.62-10.01-1.81-14.68-3.96-.75-.35-1.12-.76-1.22-1.61-.49-4.46-1.03-8.92-1.57-13.37-.13-1.06.16-1.35,1.19-.85,6.09,3,12.62,4.13,19.32,4.29,2.41.06,4.83-.22,7.18-1.02,3.64-1.24,5.87-3.7,6.67-7.39.96-4.43.97-8.86-.73-13.13-1.68-4.2-4.77-7.22-8.49-9.66-.45-.3-.97-.23-1.47-.23-11.29,0-22.58.02-33.87-.03-1.34,0-1.61.51-1.6,1.7.04,4.77.09,9.54-.2,14.3-.42,6.7-1.57,13.2-5.06,19.08-3.3,5.56-8.14,9.15-14.32,10.87-7.43,2.07-14.95,2.1-22.46.47-10.32-2.24-17.33-9.52-19.06-20.31-1.22-7.6-1.3-15.28.65-22.81,2.35-9.1,8.34-14.63,17.4-16.89,3.53-.88,7.13-1.2,10.77-1.16,4.5.05,9,0,13.49.03.98,0,1.39-.27,1.38-1.32-.04-6.97.06-13.95-.05-20.92-.06-3.7-.4-7.4-1.54-10.99-1.6-5.01-4.82-7.72-10.07-8.15-3.99-.33-7.73.25-10.59,3.4-1.99,2.19-2.86,4.91-3.13,7.78-.65,6.85-.41,13.65,1.41,20.33.15.53.33,1.05.49,1.58.46,1.46.42,1.52-1.17,1.53-4.45,0-8.9-.03-13.36.02-1.08.01-1.62-.38-2.07-1.36-1.65-3.67-2.21-7.56-2.51-11.5-.44-5.81-.53-11.63.71-17.38,2.21-10.29,8.46-16.71,18.71-18.96,8.07-1.77,16.13-1.6,23.95,1.49,6.14,2.43,10.3,6.89,12.97,12.81,2.39,5.31,3.22,10.95,3.48,16.72.35,7.7.11,15.41.19,23.11.02,1.84.04,1.88,1.83,1.88,5.37,0,10.74,0,16.11,0,.4,0,.82.11,1.35-.27Zm-44.85,14.94c-2.32.09-5.17-.18-8,.27-5.11.8-8.86,3.28-10.19,8.5-1.23,4.87-1.2,9.82-.06,14.71.57,2.45,1.73,4.72,3.91,6.14,4.99,3.25,10.31,3.41,15.58.9,4.05-1.92,5.6-5.75,6.33-9.92,1.13-6.45.77-12.97.83-19.48,0-.84-.34-1.13-1.15-1.12-2.25.03-4.49,0-7.26,0Zm74.05-37.72c-.14-3.39.3-7.08-.58-10.7-1-4.13-3.43-6.87-7.73-7.57-4.25-.69-8.79.19-11.05,4.49-.98,1.86-1.39,3.86-1.55,5.94-.32,4.03-.24,8.06-.01,12.09.42,7.3,3.26,13.26,9.33,17.55.64.45,1.19.51,1.91.29,5.17-1.63,7.96-5.28,9.05-10.45.8-3.77.55-7.58.63-11.64Z" fill="#fff"/><path d="m2475.58,164.71c0,9.45.19,15.97-.04,22.48-.33,9.41-1.4,18.74-4.64,27.68-1.02,2.81-2.32,5.49-3.84,8.06-.44.75-1.03.92-1.83.91-5.09-.02-10.19,0-15.28-.01-1.77,0-1.84-.09-1.04-1.63,2.65-5.06,4.65-10.38,6.03-15.91,1.58-6.33,2.49-12.76,2.7-19.29.39-11.65.16-23.3.17-34.95,0-4.3-.19-8.62-1.32-12.82-1.69-6.27-4.67-11.57-10.91-14.37-3.85-1.73-7.93-2.19-12.1-1.98-3.18.16-6.28.75-9.19,2.12-4.72,2.21-7.67,6.02-9.53,10.74-1.5,3.79-2.07,7.77-2.24,11.83-.46,11.33-.24,22.66-.18,33.98.06,9.55.87,19.05,3.88,28.22,1.4,4.27,2.93,8.5,5.04,12.49.78,1.47.69,1.58-.98,1.58-5.09,0-10.19-.02-15.28.02-1,0-1.57-.35-2.08-1.21-3.62-6.09-5.56-12.75-6.74-19.66-1.19-6.97-1.69-14-1.67-21.08.03-10.28-.01-20.55.01-30.83.02-6.3.54-12.55,2.25-18.64,2.64-9.4,7.85-16.83,16.69-21.34,4.58-2.34,9.53-3.56,14.63-4.07,8.11-.81,16.13-.46,23.93,2.15,8.46,2.83,14.72,8.2,18.65,16.26,3.01,6.17,4.22,12.74,4.69,19.52.52,7.56.06,15.13.2,19.76Z" fill="#fff"/><path d="m2512.16,167.24c-2.21-.4-4.3-.84-6.29-1.63-5.56-2.2-8.95-6.43-10.51-11.97-2.33-8.27-2.47-16.7-.23-25.01,2.3-8.54,7.97-14.06,16.4-16.7,5.16-1.61,10.47-2.24,15.88-2.23,15.88.03,31.76,0,47.64,0,1.91,0,1.92,0,1.92,1.89,0,3.76,0,7.52,0,11.29,0,2.07,0,2.08-2.03,2.08-14.69,0-29.37,0-44.06,0-2.72,0-5.43.12-8.07.73-7.07,1.64-10.87,6.06-11.32,13.33-.2,3.19-.35,6.41.32,9.6,1.33,6.34,5.07,9.76,11.5,10.65,5.57.77,11.17.48,16.76.57,2.02.03,4.04.05,6.06.03.98,0,1.39.37,1.38,1.39-.04,4.17-.03,8.35,0,12.52,0,.95-.38,1.31-1.31,1.3-1.93-.02-3.86-.01-5.78.02-5.05.08-10.09.14-15.14.29-2.3.07-4.54.59-6.68,1.48-3.78,1.56-5.82,4.56-6.56,8.42-.83,4.3-.87,8.65-.08,12.99,1.02,5.61,4.64,9.12,10.27,10,4.24.66,8.51.51,12.77.52,1.74,0,3.49,0,5.23,0,1.66,0,1.7.03,1.47,1.73-.55,4-1.13,7.99-1.68,11.98-.13.91-.5,1.35-1.51,1.34-5.74-.05-11.48.14-17.21-.11-5.67-.24-11.2-1.36-16.2-4.3-5.19-3.05-8.49-7.59-9.91-13.33-2.02-8.18-2.05-16.43.07-24.63,1.9-7.38,7.72-12.55,15.27-13.67.52-.08,1.09-.02,1.63-.58Z" fill="#fff"/><path d="m2751.32,167.25c-2.32-.39-4.36-.85-6.33-1.61-5.62-2.19-9.03-6.46-10.6-12.05-2.3-8.22-2.44-16.61-.24-24.88,2.28-8.55,7.92-14.1,16.34-16.76,5.11-1.61,10.38-2.25,15.74-2.25,15.97.02,31.94,0,47.92,0,1.86,0,1.87,0,1.87,1.81,0,3.9-.06,7.8.03,11.7.03,1.44-.5,1.77-1.84,1.77-15.51-.03-31.03-.05-46.54.04-4.11.02-8.13.7-11.65,3.14-2.62,1.82-4.24,4.34-4.9,7.39-1.02,4.71-1.07,9.48,0,14.19,1.23,5.4,5.29,8.73,11.31,9.52,3.33.44,6.67.56,10.02.55,4.18,0,8.35.06,12.53.04,1.17,0,1.62.37,1.61,1.59-.06,4.04-.05,8.07,0,12.11.01,1.13-.38,1.62-1.51,1.52-.5-.04-1.01,0-1.51,0-6.33,0-12.66.02-18.99.29-2.31.1-4.55.55-6.7,1.41-4.53,1.81-6.45,5.5-7.04,10.05-.5,3.84-.51,7.68.19,11.5,1.01,5.51,4.63,9.06,10.18,9.93,2.91.45,5.84.56,8.78.54,2.94-.02,5.87,0,8.81,0,2.27,0,2.24,0,1.91,2.19-.55,3.72-1.1,7.43-1.57,11.16-.15,1.21-.57,1.73-1.89,1.71-5.46-.08-10.93.1-16.38-.1-5.87-.21-11.57-1.31-16.74-4.35-5.18-3.05-8.47-7.61-9.88-13.36-2-8.13-2.02-16.34.06-24.49,1.91-7.48,7.73-12.65,15.34-13.75.5-.07,1.01-.08,1.69-.56Z" fill="#fff"/></svg>