<?xml version="1.0" encoding="UTF-8"?><svg id="a" xmlns="http://www.w3.org/2000/svg" xmlns:xlink="http://www.w3.org/1999/xlink" viewBox="0 0 2965.95 580"><defs><clipPath id="b"><rect x="270" y=".18" width="300" height="270" rx="15" ry="15" fill="none"/></clipPath><clipPath id="c"><path d="m240,285.18V15.18c0-8.28-6.72-15-15-15H15C6.72.18,0,6.89,0,15.18v540c0,8.28,6.72,15,15,15h300c8.28,0,15-6.72,15-15v-240c0-8.28-6.72-15-15-15h-60c-8.28,0-15-6.72-15-15Z" fill="none"/></clipPath><clipPath id="d"><rect x="360" y="300.18" width="210" height="270" rx="15" ry="15" fill="none"/></clipPath></defs><rect x="2363.81" y="323.6" width="120.44" height="246.56" rx="15" ry="15" fill="#f6931a"/><path d="m2409.75,547.42h-8.21c-1.13,0-2-.5-2.6-1.5l-5.71-9.11c-.93-1.53-1.4-2.84-1.4-3.9v-8.01c0-1.4.7-2.1,2.1-2.1h60.18c.8,0,1.35.15,1.65.45.3.3.45.82.45,1.55v8.61c0,1.4-.7,2.1-2.1,2.1h-48.76l5.61,9.81c.6,1.4.2,2.1-1.2,2.1Z" fill="#fff"/><path d="m2456.22,479.48v21.13c0,1.47-.7,2.2-2.1,2.2h-6.91c-1.33,0-2-.73-2-2.2v-19.12c0-2.14-.45-3.64-1.35-4.51-.9-.87-2.42-1.3-4.56-1.3h-6.01v13.62c0,5.27-1.4,9.35-4.21,12.22-2.8,2.87-6.81,4.31-12.02,4.31h-8.91c-5.27,0-9.31-1.43-12.12-4.31-2.8-2.87-4.21-6.94-4.21-12.22v-9.81c0-5.27,1.4-9.35,4.21-12.22,2.8-2.87,6.84-4.31,12.12-4.31h31.74c5.27,0,9.31,1.44,12.12,4.31,2.8,2.87,4.21,6.94,4.21,12.22Zm-33.95,7.71v-11.62h-13.52c-2.14,0-3.65.45-4.56,1.35-.9.9-1.35,2.42-1.35,4.56v5.71c0,2.14.45,3.64,1.35,4.51.9.87,2.42,1.3,4.56,1.3h7.71c2.07,0,3.55-.43,4.46-1.3.9-.87,1.35-2.37,1.35-4.51Z" fill="#fff"/><path d="m2423.47,423.58v4.71c0,1.74.7,3.05,2.1,3.95,1.4.9,2.1,1.85,2.1,2.85v8.31c0,1.4-.67,2.1-2,2.1h-31.74c-1.4,0-2.1-.7-2.1-2.1v-34.85c0-1.4.7-2.1,2.1-2.1h7.61c1.4,0,2.1.7,2.1,2.1v24.23h14.72c-3.34-1.13-5.01-3.94-5.01-8.41v-4.21c0-10.35,5.17-15.52,15.52-15.52h11.01c5.21,0,9.23,1.44,12.07,4.31,2.84,2.87,4.26,6.91,4.26,12.12v8.81c0,5.27-1.4,9.35-4.21,12.22-2.8,2.87-6.84,4.31-12.12,4.31h-2c-1.47,0-2.2-.7-2.2-2.1v-8.51c0-1.4.74-2.1,2.2-2.1h1.9c2.07,0,3.55-.45,4.46-1.35.9-.9,1.35-2.39,1.35-4.46v-4.71c0-2.14-.45-3.71-1.35-4.71-.9-1-2.39-1.5-4.46-1.5h-9.01c-2.8,0-4.72.47-5.76,1.4-1.03.94-1.55,2.67-1.55,5.21Z" fill="#fff"/><path d="m2456.22,362.85v21.13c0,1.47-.7,2.2-2.1,2.2h-6.91c-1.33,0-2-.73-2-2.2v-19.12c0-2.14-.45-3.64-1.35-4.51-.9-.87-2.42-1.3-4.56-1.3h-6.01v13.62c0,5.27-1.4,9.35-4.21,12.22-2.8,2.87-6.81,4.31-12.02,4.31h-8.91c-5.27,0-9.31-1.43-12.12-4.31-2.8-2.87-4.21-6.94-4.21-12.22v-9.81c0-5.27,1.4-9.35,4.21-12.22,2.8-2.87,6.84-4.31,12.12-4.31h31.74c5.27,0,9.31,1.44,12.12,4.31,2.8,2.87,4.21,6.94,4.21,12.22Zm-33.95,7.71v-11.62h-13.52c-2.14,0-3.65.45-4.56,1.35-.9.9-1.35,2.42-1.35,4.56v5.71c0,2.14.45,3.64,1.35,4.51.9.87,2.42,1.3,4.56,1.3h7.71c2.07,0,3.55-.43,4.46-1.3.9-.87,1.35-2.37,1.35-4.51Z" fill="#fff"/><path d="m800.97,551.34c-8.01,7.07-17.44,12.9-28.28,17.5-10.84,4.59-23.57,6.89-38.17,6.89-17.67,0-32.29-2.12-43.83-6.36-11.55-4.24-20.8-9.78-27.75-16.61-6.95-6.83-11.79-14.61-14.49-23.33-2.71-8.72-4.06-17.55-4.06-26.51,0-9.42,1.53-17.85,4.59-25.27,3.06-7.42,7.12-14.02,12.19-19.79,5.06-5.77,10.84-10.9,17.32-15.38,6.48-4.47,13.13-8.72,19.97-12.72-6.36-7.07-12.26-15.43-17.67-25.1-5.42-9.66-8.13-20.15-8.13-31.46,0-8.25,1.53-15.91,4.59-22.98,3.06-7.07,7.3-13.13,12.72-18.2,5.42-5.07,12.02-9.07,19.79-12.02,7.78-2.94,16.26-4.42,25.45-4.42,17.67,0,31.87,4.3,42.59,12.9,10.72,8.6,17.02,19.85,18.91,33.76.47,1.89.71,3.77.71,5.66v5.66c-.47,7.54-2.12,14.38-4.95,20.5-2.83,6.13-6.42,11.66-10.78,16.61-4.36,4.95-9.43,9.43-15.2,13.43-5.78,4.01-11.61,7.78-17.5,11.31l53.02,62.56c3.3-8.25,5.59-16.49,6.89-24.74,1.02-6.52,1.72-13.33,2.08-20.44.16-3.2,2.79-5.71,5.99-5.71h24.42c3.46,0,6.18,2.92,5.99,6.38-.67,12.29-2.72,24.07-6.14,35.33-4.01,13.2-9.43,25.33-16.26,36.41l31.44,36.63c2.78,3.24.48,8.26-3.79,8.26h-28.84c-4.4,0-8.58-1.93-11.43-5.29l-11.41-13.44Zm-84.13-98.26c-8.72,4.95-16.26,11.02-22.62,18.2-6.36,7.19-9.54,15.97-9.54,26.33,0,6.6.88,12.72,2.65,18.38,1.77,5.65,4.71,10.49,8.84,14.49,4.12,4.01,9.54,7.19,16.26,9.54,6.72,2.36,15.14,3.53,25.27,3.53s18.26-1.47,25.1-4.42c6.83-2.94,12.6-6.77,17.32-11.49l-63.27-74.58Zm16.97-39.94c3.77-2.12,7.36-4.53,10.78-7.25,3.41-2.71,6.42-5.71,9.01-9.01,2.59-3.3,4.71-6.95,6.36-10.96,1.65-4,2.47-8.48,2.47-13.43,0-8.95-2.36-15.78-7.07-20.5-4.72-4.71-11.08-7.07-19.09-7.07-17.91,0-26.86,9.67-26.86,28.98,0,4.48.76,8.72,2.3,12.72,1.53,4.01,3.41,7.72,5.66,11.13,2.24,3.42,4.59,6.54,7.07,9.37,2.47,2.83,4.65,5.3,6.54,7.42l2.83-1.41Z" fill="#59bffa"/><path d="m643.93,239.76V6.51c0-4.34,2.17-6.51,6.51-6.51h90.77c18.89,0,33.57,5.11,44.04,15.32,10.47,10.22,15.7,24.64,15.7,43.28v18.77c0,22.21-10.47,36.52-31.41,42.9,9.96,1.28,18.19,5.62,24.7,13.02,6.51,7.41,9.77,17.37,9.77,29.87v24.51c0,18.64-5.24,33.07-15.7,43.28-10.47,10.22-25.03,15.32-43.66,15.32h-94.22c-4.34,0-6.51-2.17-6.51-6.51Zm41.36-134.82h49.79c19.4,0,29.11-9.32,29.11-27.96v-17.62c0-18.38-9.45-27.58-28.34-27.58h-50.56c-2.81,0-4.21,1.28-4.21,3.83v65.49c0,2.56,1.4,3.83,4.21,3.83Zm0,109.54h53.62c19.15,0,28.72-9.19,28.72-27.58v-23.75c0-18.38-10.09-27.58-30.26-27.58h-52.09c-2.81,0-4.21,1.28-4.21,3.83v71.24c0,2.56,1.4,3.83,4.21,3.83Z" fill="#19a3f5"/><path d="m877.98,246.27h-24.13c-4.34,0-6.51-2.17-6.51-6.51V6.51c0-4.34,2.17-6.51,6.51-6.51h24.13c4.34,0,6.51,2.17,6.51,6.51v95.75c0,2.55,1.53,3.83,4.6,3.83h80.81c2.55,0,3.83-1.28,3.83-3.83V6.51c0-4.34,2.17-6.51,6.51-6.51h24.51c4.34,0,6.51,2.17,6.51,6.51v233.25c0,4.34-2.17,6.51-6.51,6.51h-24.51c-4.34,0-6.51-2.17-6.51-6.51v-96.9c0-2.55-1.28-3.83-3.83-3.83h-80.81c-3.06,0-4.6,1.28-4.6,3.83v96.9c0,4.34-2.17,6.51-6.51,6.51Z" fill="#19a3f5"/><path d="m1080.16,246.27h-27.58c-3.58,0-4.85-2.17-3.83-6.51L1115.39,6.51c1.28-4.34,4.34-6.51,9.19-6.51h38.3c5.1,0,8.17,2.17,9.19,6.51l66.64,233.25c1.02,4.34-.38,6.51-4.21,6.51h-27.19c-2.3,0-3.9-.44-4.79-1.34-.9-.89-1.6-2.62-2.11-5.17l-14.55-49.79h-84.26l-14.55,49.79c-1.02,4.34-3.32,6.51-6.89,6.51Zm62.81-209.5l-33.7,122.56h69.32l-34.09-122.56h-1.53Z" fill="#19a3f5"/><path d="m1303.44,246.27h-24.13c-4.34,0-6.51-2.17-6.51-6.51V6.51c0-4.34,2.17-6.51,6.51-6.51h89.62c18.64,0,33.26,5.3,43.85,15.89,10.59,10.6,15.89,25.22,15.89,43.85v32.17c0,29.37-12.13,47.88-36.38,55.53v1.53l42.51,89.62c2.81,5.11,1.15,7.66-4.98,7.66h-23.75c-6.13,0-10.09-2.17-11.87-6.51l-40.98-88.09h-38.68c-3.06,0-4.6,1.28-4.6,3.83v84.26c0,4.34-2.17,6.51-6.51,6.51Zm10.72-125.24h48.64c18.89,0,28.34-9.32,28.34-27.96v-32.17c0-18.89-9.45-28.34-28.34-28.34h-48.64c-2.81,0-4.21,1.28-4.21,3.83v80.81c0,2.56,1.4,3.83,4.21,3.83Z" fill="#19a3f5"/><path d="m1495.7,246.27h-27.58c-3.58,0-4.85-2.17-3.83-6.51L1530.94,6.51c1.28-4.34,4.34-6.51,9.19-6.51h38.3c5.1,0,8.17,2.17,9.19,6.51l66.64,233.25c1.02,4.34-.38,6.51-4.21,6.51h-27.19c-2.3,0-3.9-.44-4.79-1.34-.9-.89-1.6-2.62-2.11-5.17l-14.55-49.79h-84.26l-14.55,49.79c-1.02,4.34-3.32,6.51-6.89,6.51Zm62.81-209.5l-33.7,122.56h69.32l-34.09-122.56h-1.53Z" fill="#19a3f5"/><path d="m1738.52,246.27h-24.13c-4.6,0-6.89-2.17-6.89-6.51V36.38c0-2.55-1.28-3.83-3.83-3.83h-48.26c-4.6,0-6.89-2.17-6.89-6.51V6.51c0-4.34,2.3-6.51,6.89-6.51h142.09c4.6,0,6.89,2.17,6.89,6.51v19.53c0,4.34-2.3,6.51-6.89,6.51h-48.26c-2.81,0-4.21,1.28-4.21,3.83v203.37c0,4.34-2.17,6.51-6.51,6.51Z" fill="#19a3f5"/><path d="m2019.25,246.27h-40.98c-18.9,0-33.51-5.23-43.85-15.7-10.34-10.47-15.51-25.02-15.51-43.66V59.36c0-18.89,5.17-33.51,15.51-43.85,10.34-10.34,24.96-15.51,43.85-15.51h40.98c18.89,0,33.51,5.17,43.85,15.51,10.34,10.34,15.51,24.96,15.51,43.85v13.79c0,4.6-2.17,6.89-6.51,6.89h-24.13c-4.34,0-6.51-2.3-6.51-6.89v-12.26c0-18.89-9.19-28.34-27.58-28.34h-30.26c-18.38,0-27.58,9.45-27.58,28.34v124.47c0,18.9,9.19,28.34,27.58,28.34h30.26c18.38,0,27.58-9.44,27.58-28.34v-34.47c0-2.55-1.41-3.83-4.21-3.83h-31.02c-4.34,0-6.51-2.17-6.51-6.51v-19.53c0-4.34,2.17-6.51,6.51-6.51h64.34c5.36,0,8.04,2.68,8.04,8.04v64.34c0,18.64-5.24,33.2-15.7,43.66-10.47,10.47-25.03,15.7-43.66,15.7Z" fill="#19a3f5"/><path d="m2251.73,246.27h-124.09c-4.34,0-6.51-2.17-6.51-6.51V6.51c0-4.34,2.17-6.51,6.51-6.51h24.13c4.34,0,6.51,2.17,6.51,6.51v202.61c0,2.56,1.53,3.83,4.6,3.83h88.86c4.34,0,6.51,2.3,6.51,6.89v19.92c0,4.34-2.17,6.51-6.51,6.51Z" fill="#19a3f5"/><path d="m2316.46,246.27h-27.58c-3.58,0-4.85-2.17-3.83-6.51l66.64-233.25c1.27-4.34,4.34-6.51,9.19-6.51h38.3c5.1,0,8.17,2.17,9.19,6.51l66.64,233.25c1.02,4.34-.38,6.51-4.21,6.51h-27.19c-2.3,0-3.9-.44-4.79-1.34-.9-.89-1.6-2.62-2.11-5.17l-14.55-49.79h-84.26l-14.55,49.79c-1.02,4.34-3.32,6.51-6.89,6.51Zm62.81-209.5l-33.7,122.56h69.32l-34.09-122.56h-1.53Z" fill="#19a3f5"/><path d="m2502.59,186.52v-9.96c0-4.34,2.17-6.51,6.51-6.51h24.51c4.34,0,6.51,2.17,6.51,6.51v6.89c0,10.72,2.36,18.45,7.09,23.17,4.72,4.73,12.57,7.09,23.55,7.09h26.43c10.97,0,18.89-2.49,23.75-7.47,4.85-4.98,7.28-13.08,7.28-24.32v-8.81c0-8.17-3.13-14.61-9.38-19.34-6.26-4.72-13.98-7.79-23.17-9.19-9.19-1.4-19.28-3.38-30.26-5.94-10.98-2.55-21.07-5.49-30.26-8.81-9.19-3.32-16.92-9.58-23.17-18.77-6.26-9.19-9.38-20.93-9.38-35.24v-16.09c0-18.63,5.3-33.25,15.89-43.85s25.21-15.89,43.85-15.89h40.6c18.89,0,33.64,5.3,44.24,15.89,10.59,10.6,15.89,25.22,15.89,43.85v8.43c0,4.34-2.17,6.51-6.51,6.51h-24.51c-4.34,0-6.51-2.17-6.51-6.51v-4.98c0-10.98-2.36-18.83-7.09-23.55-4.73-4.72-12.58-7.08-23.55-7.08h-24.13c-10.98,0-18.83,2.49-23.55,7.47-4.73,4.98-7.09,13.47-7.09,25.47v11.87c0,11.49,8.29,19.28,24.9,23.36,7.4,1.79,15.51,3.32,24.32,4.6,8.81,1.28,17.68,3.2,26.62,5.75,8.93,2.56,17.1,5.94,24.51,10.15,7.4,4.21,13.41,10.6,18,19.15,4.6,8.56,6.89,18.96,6.89,31.21v14.94c0,18.64-5.3,33.26-15.89,43.85-10.6,10.6-25.22,15.89-43.85,15.89h-42.9c-18.64,0-33.32-5.3-44.04-15.89-10.72-10.59-16.09-25.21-16.09-43.85Z" fill="#19a3f5"/><path d="m2704.81,186.52v-9.96c0-4.34,2.17-6.51,6.51-6.51h24.51c4.34,0,6.51,2.17,6.51,6.51v6.89c0,10.72,2.36,18.45,7.09,23.17,4.72,4.73,12.57,7.09,23.55,7.09h26.43c10.97,0,18.89-2.49,23.75-7.47,4.85-4.98,7.28-13.08,7.28-24.32v-8.81c0-8.17-3.13-14.61-9.38-19.34-6.26-4.72-13.98-7.79-23.17-9.19-9.19-1.4-19.28-3.38-30.26-5.94-10.98-2.55-21.07-5.49-30.26-8.81-9.19-3.32-16.92-9.58-23.17-18.77-6.26-9.19-9.38-20.93-9.38-35.24v-16.09c0-18.63,5.3-33.25,15.89-43.85,10.59-10.59,25.21-15.89,43.85-15.89h40.6c18.89,0,33.64,5.3,44.24,15.89,10.59,10.6,15.89,25.22,15.89,43.85v8.43c0,4.34-2.17,6.51-6.51,6.51h-24.51c-4.34,0-6.51-2.17-6.51-6.51v-4.98c0-10.98-2.36-18.83-7.09-23.55-4.73-4.72-12.58-7.08-23.55-7.08h-24.13c-10.98,0-18.83,2.49-23.55,7.47-4.73,4.98-7.09,13.47-7.09,25.47v11.87c0,11.49,8.29,19.28,24.89,23.36,7.4,1.79,15.51,3.32,24.32,4.6,8.81,1.28,17.68,3.2,26.62,5.75,8.93,2.56,17.1,5.94,24.51,10.15,7.4,4.21,13.41,10.6,18,19.15,4.6,8.56,6.89,18.96,6.89,31.21v14.94c0,18.64-5.3,33.26-15.89,43.85-10.6,10.6-25.22,15.89-43.85,15.89h-42.9c-18.64,0-33.32-5.3-44.04-15.89-10.72-10.59-16.09-25.21-16.09-43.85Z" fill="#19a3f5"/><path d="m1054.92,569.27h-44.43c-18.9,0-33.51-5.23-43.85-15.7-10.34-10.47-15.51-25.02-15.51-43.66v-127.54c0-18.89,5.17-33.51,15.51-43.85,10.34-10.34,24.96-15.51,43.85-15.51h44.43c18.64,0,33.19,5.17,43.66,15.51,10.47,10.34,15.7,24.96,15.7,43.85v18.38c0,4.6-2.3,6.89-6.89,6.89h-24.13c-4.34,0-6.51-2.3-6.51-6.89v-16.85c0-18.89-9.19-28.34-27.58-28.34h-33.32c-18.38,0-27.58,9.45-27.58,28.34v124.47c0,18.9,9.19,28.34,27.58,28.34h33.32c18.38,0,27.58-9.44,27.58-28.34v-16.85c0-4.6,2.17-6.89,6.51-6.89h24.13c4.6,0,6.89,2.3,6.89,6.89v18.38c0,18.64-5.24,33.2-15.7,43.66s-25.03,15.7-43.66,15.7Z" fill="#59bffa"/><path d="m1187.52,569.27h-24.13c-4.34,0-6.51-2.17-6.51-6.51v-233.25c0-4.34,2.17-6.51,6.51-6.51h89.62c18.63,0,33.25,5.3,43.85,15.89,10.59,10.6,15.89,25.22,15.89,43.85v32.17c0,29.37-12.13,47.88-36.38,55.53v1.53l42.51,89.62c2.81,5.11,1.15,7.66-4.98,7.66h-23.75c-6.13,0-10.09-2.17-11.87-6.51l-40.98-88.09h-38.68c-3.06,0-4.6,1.28-4.6,3.83v84.26c0,4.34-2.17,6.51-6.51,6.51Zm10.72-125.24h48.64c18.89,0,28.34-9.32,28.34-27.96v-32.17c0-18.89-9.45-28.34-28.34-28.34h-48.64c-2.81,0-4.21,1.28-4.21,3.83v80.81c0,2.56,1.4,3.83,4.21,3.83Z" fill="#59bffa"/><path d="m1461.1,569.27h-44.43c-18.9,0-33.51-5.23-43.85-15.7-10.34-10.47-15.51-25.02-15.51-43.66v-127.54c0-18.89,5.17-33.51,15.51-43.85,10.34-10.34,24.96-15.51,43.85-15.51h44.43c18.89,0,33.57,5.17,44.04,15.51,10.47,10.34,15.7,24.96,15.7,43.85v127.54c0,18.64-5.24,33.2-15.7,43.66s-25.15,15.7-44.04,15.7Zm-39.07-32.55h33.32c18.64,0,27.96-9.44,27.96-28.34v-124.47c0-18.89-9.32-28.34-27.96-28.34h-33.32c-18.38,0-27.58,9.45-27.58,28.34v124.47c0,18.9,9.19,28.34,27.58,28.34Z" fill="#59bffa"/><path d="m1668.96,569.27h-44.43c-18.9,0-33.51-5.23-43.85-15.7-10.34-10.47-15.51-25.02-15.51-43.66v-127.54c0-18.89,5.17-33.51,15.51-43.85,10.34-10.34,24.96-15.51,43.85-15.51h44.43c18.64,0,33.19,5.17,43.66,15.51,10.47,10.34,15.7,24.96,15.7,43.85v18.38c0,4.6-2.3,6.89-6.89,6.89h-24.13c-4.34,0-6.51-2.3-6.51-6.89v-16.85c0-18.89-9.19-28.34-27.58-28.34h-33.32c-18.38,0-27.58,9.45-27.58,28.34v124.47c0,18.9,9.19,28.34,27.58,28.34h33.32c18.38,0,27.58-9.44,27.58-28.34v-16.85c0-4.6,2.17-6.89,6.51-6.89h24.13c4.6,0,6.89,2.3,6.89,6.89v18.38c0,18.64-5.24,33.2-15.7,43.66s-25.03,15.7-43.66,15.7Z" fill="#59bffa"/><path d="m1801.56,569.27h-24.13c-4.34,0-6.51-2.17-6.51-6.51v-233.25c0-4.34,2.17-6.51,6.51-6.51h24.13c4.34,0,6.51,2.17,6.51,6.51v121.41h1.15c2.55-6.89,5.87-13.27,9.96-19.15l73.15-102.26c2.81-4.34,6.89-6.51,12.26-6.51h28.34c5.36,0,6.25,2.43,2.68,7.28l-74.68,101.5,84.26,129.84c3.06,5.11,1.53,7.66-4.6,7.66h-21.45c-6.89,0-11.75-2.17-14.55-6.51l-66.26-103.79-30.26,35.62v68.17c0,4.34-2.17,6.51-6.51,6.51Z" fill="#59bffa"/><path d="m2109.72,569.27h-122.56c-4.34,0-6.51-2.17-6.51-6.51v-233.25c0-4.34,2.17-6.51,6.51-6.51h122.56c4.08,0,6.13,2.17,6.13,6.51v19.53c0,4.34-2.05,6.51-6.13,6.51h-87.32c-3.06,0-4.6,1.28-4.6,3.83v64.73c0,2.56,1.53,3.83,4.6,3.83h73.92c4.6,0,6.89,2.17,6.89,6.51v19.53c0,4.34-2.3,6.51-6.89,6.51h-73.92c-3.06,0-4.6,1.28-4.6,3.83v68.17c0,2.81,1.53,4.21,4.6,4.21h87.32c4.08,0,6.13,2.17,6.13,6.51v19.53c0,4.34-2.05,6.51-6.13,6.51Z" fill="#59bffa"/><path d="m2188.47,569.27h-24.13c-4.34,0-6.51-2.17-6.51-6.51v-233.25c0-4.34,2.17-6.51,6.51-6.51h89.62c18.63,0,33.25,5.3,43.85,15.89,10.59,10.6,15.89,25.22,15.89,43.85v32.17c0,29.37-12.13,47.88-36.38,55.53v1.53l42.51,89.62c2.81,5.11,1.15,7.66-4.98,7.66h-23.75c-6.13,0-10.09-2.17-11.87-6.51l-40.98-88.09h-38.68c-3.06,0-4.6,1.28-4.6,3.83v84.26c0,4.34-2.17,6.51-6.51,6.51Zm10.72-125.24h48.64c18.89,0,28.34-9.32,28.34-27.96v-32.17c0-18.89-9.45-28.34-28.34-28.34h-48.64c-2.81,0-4.21,1.28-4.21,3.83v80.81c0,2.56,1.4,3.83,4.21,3.83Z" fill="#59bffa"/><path d="m2662.45,569.27h-122.56c-4.34,0-6.51-2.17-6.51-6.51v-233.25c0-4.34,2.17-6.51,6.51-6.51h122.56c4.08,0,6.13,2.17,6.13,6.51v19.53c0,4.34-2.05,6.51-6.13,6.51h-87.32c-3.06,0-4.6,1.28-4.6,3.83v64.73c0,2.56,1.53,3.83,4.6,3.83h73.92c4.6,0,6.89,2.17,6.89,6.51v19.53c0,4.34-2.3,6.51-6.89,6.51h-73.92c-3.06,0-4.6,1.28-4.6,3.83v68.17c0,2.81,1.53,4.21,4.6,4.21h87.32c4.08,0,6.13,2.17,6.13,6.51v19.53c0,4.34-2.05,6.51-6.13,6.51Z" fill="#59bffa"/><path d="m2704.81,509.52v-9.96c0-4.34,2.17-6.51,6.51-6.51h24.51c4.34,0,6.51,2.17,6.51,6.51v6.89c0,10.72,2.36,18.45,7.08,23.17,4.72,4.73,12.57,7.09,23.55,7.09h26.43c10.98,0,18.89-2.49,23.75-7.47,4.85-4.98,7.28-13.08,7.28-24.32v-8.81c0-8.17-3.13-14.61-9.38-19.34-6.26-4.72-13.98-7.79-23.17-9.19-9.19-1.4-19.28-3.38-30.26-5.94-10.98-2.55-21.06-5.49-30.26-8.81-9.19-3.32-16.92-9.58-23.17-18.77-6.26-9.19-9.38-20.93-9.38-35.24v-16.09c0-18.63,5.3-33.25,15.89-43.85,10.59-10.59,25.21-15.89,43.85-15.89h40.6c18.89,0,33.64,5.3,44.24,15.89,10.59,10.6,15.89,25.22,15.89,43.85v8.43c0,4.34-2.17,6.51-6.51,6.51h-24.51c-4.34,0-6.51-2.17-6.51-6.51v-4.98c0-10.98-2.36-18.83-7.09-23.55-4.73-4.72-12.58-7.08-23.55-7.08h-24.13c-10.98,0-18.83,2.49-23.55,7.47-4.73,4.98-7.08,13.47-7.08,25.47v11.87c0,11.49,8.29,19.28,24.89,23.36,7.4,1.79,15.51,3.32,24.32,4.6,8.81,1.28,17.68,3.2,26.62,5.75,8.93,2.56,17.1,5.94,24.51,10.15,7.4,4.21,13.41,10.6,18,19.15,4.6,8.56,6.89,18.96,6.89,31.21v14.94c0,18.64-5.3,33.26-15.89,43.85-10.6,10.6-25.22,15.89-43.85,15.89h-42.9c-18.64,0-33.32-5.3-44.04-15.89-10.72-10.59-16.09-25.21-16.09-43.85Z" fill="#59bffa"/><path d="m2950.65,9.1c4.82,2.73,8.58,6.51,11.27,11.32,2.69,4.81,4.03,10.25,4.03,16.33s-1.35,11.52-4.03,16.33c-2.69,4.81-6.45,8.58-11.27,11.32-4.82,2.73-10.28,4.1-16.37,4.1s-11.55-1.37-16.37-4.1c-4.82-2.73-8.6-6.51-11.34-11.32-2.74-4.81-4.11-10.25-4.11-16.33s1.37-11.52,4.11-16.33c2.74-4.81,6.52-8.58,11.34-11.32,4.82-2.73,10.28-4.1,16.37-4.1s11.55,1.37,16.37,4.1Zm-.17,44.16c4.07-4.2,6.1-9.7,6.1-16.51s-2.03-12.32-6.1-16.51c-4.07-4.2-9.47-6.3-16.2-6.3s-12.25,2.1-16.27,6.3c-4.02,4.2-6.03,9.7-6.03,16.51s2.01,12.32,6.03,16.51c4.02,4.2,9.44,6.3,16.27,6.3s12.13-2.1,16.2-6.3Zm-4.84-16.72c-1.03,1.54-2.43,2.68-4.21,3.43l7.44,11.47h-10.66l-6.17-10.49h-.98v10.49h-8.84v-30.09h14.17c3.27,0,5.89.91,7.86,2.73,1.96,1.82,2.95,4.18,2.95,7.07,0,2.05-.51,3.85-1.54,5.39Zm-14.59-2.73h4.77c.75,0,1.38-.21,1.89-.63.51-.42.77-1,.77-1.75s-.26-1.31-.77-1.68c-.52-.37-1.15-.56-1.89-.56h-4.77v4.62Z" fill="#59bffa"/><rect x="270" y=".18" width="300" height="270" rx="15" ry="15" fill="#59bffa"/><path d="m240,285.18V15.18c0-8.28-6.72-15-15-15H15C6.72.18,0,6.89,0,15.18v540c0,8.28,6.72,15,15,15h300c8.28,0,15-6.72,15-15v-240c0-8.28-6.72-15-15-15h-60c-8.28,0-15-6.72-15-15Z" fill="#19a3f5"/><rect x="360" y="300.18" width="210" height="270" rx="15" ry="15" fill="#f6931a"/><g clip-path="url(#b)" fill="none"><path d="m396.04,278.68h-61.1c-1.93,0-3.5-1.57-3.5-3.5s1.57-3.5,3.5-3.5h61.1c1.93,0,3.5,1.57,3.5,3.5s-1.57,3.5-3.5,3.5Z" fill="#fff"/><path d="m365.38,278.68c-1.93,0-3.5-1.57-3.5-3.5v-51.93c0-1.93,1.57-3.5,3.5-3.5s3.5,1.57,3.5,3.5v51.93c0,1.93-1.57,3.5-3.5,3.5Z" fill="#fff"/><path d="m365.38,226.74c-1.1,0-2.14-.52-2.8-1.4l-64.15-85.54c-.8-1.06-.92-2.48-.33-3.67s1.8-1.93,3.13-1.93h128.31c1.33,0,2.54.75,3.13,1.93s.46,2.6-.33,3.67l-64.15,85.54c-.66.88-1.7,1.4-2.8,1.4Zm-57.15-85.54l57.15,76.21,57.15-76.21h-114.31Z" fill="#fff"/><path d="m492.21,229.8c-10.67,0-20.66-4.21-28.12-11.84s-11.42-17.72-11.17-28.39l2.18-91.66c.04-1.9,1.6-3.42,3.5-3.42h67.21c1.9,0,3.45,1.52,3.5,3.42l2.18,91.66c.25,10.67-3.71,20.75-11.17,28.39-7.46,7.64-17.44,11.84-28.12,11.84Zm-30.19-128.31l-2.1,88.24c-.21,8.77,3.05,17.06,9.18,23.33,6.13,6.28,14.33,9.73,23.11,9.73s16.98-3.46,23.11-9.73c6.13-6.28,9.39-14.56,9.18-23.33l-2.1-88.24h-60.37Z" fill="#fff"/><path d="m492.21,278.68c-1.93,0-3.5-1.57-3.5-3.5v-48.88c0-1.93,1.57-3.5,3.5-3.5s3.5,1.57,3.5,3.5v48.88c0,1.93-1.57,3.5-3.5,3.5Z" fill="#fff"/><path d="m522.76,278.68h-61.1c-1.93,0-3.5-1.57-3.5-3.5s1.57-3.5,3.5-3.5h61.1c1.93,0,3.5,1.57,3.5,3.5s-1.57,3.5-3.5,3.5Z" fill="#fff"/></g><g clip-path="url(#c)" fill="none"><path d="m168.68,329.07h60.26c3.93,0,7.12,3.19,7.12,7.12v6.75h-74.5v-6.75c0-3.93,3.19-7.12,7.12-7.12Z" fill="#fff"/><path d="m255.11,329.07h60.26c3.93,0,7.12,3.19,7.12,7.12v6.75h-74.5v-6.75c0-3.93,3.19-7.12,7.12-7.12Z" fill="#fff"/><path d="m329.7,530.19h-175.37c-8.88,0-16.1-7.22-16.1-16.1v-158.55c0-8.88,7.22-16.1,16.1-16.1h175.37c8.88,0,16.1,7.22,16.1,16.1v158.55c0,8.88-7.22,16.1-16.1,16.1Zm-175.37-183.74c-5.02,0-9.1,4.08-9.1,9.1v158.55c0,5.02,4.08,9.1,9.1,9.1h175.37c5.02,0,9.1-4.08,9.1-9.1v-158.55c0-5.02-4.08-9.1-9.1-9.1h-175.37Z" fill="#fff"/><path d="m174.35,541.29c-1.93,0-3.5-1.57-3.5-3.5v-11.1c0-1.93,1.57-3.5,3.5-3.5s3.5,1.57,3.5,3.5v11.1c0,1.93-1.57,3.5-3.5,3.5Z" fill="#fff"/><path d="m309.45,541.29c-1.93,0-3.5-1.57-3.5-3.5v-11.1c0-1.93,1.57-3.5,3.5-3.5s3.5,1.57,3.5,3.5v11.1c0,1.93-1.57,3.5-3.5,3.5Z" fill="#fff"/><path d="m316.64,503.19h-149.24c-1.93,0-3.5-1.57-3.5-3.5v-74.05c0-1.93,1.57-3.5,3.5-3.5h149.24c1.93,0,3.5,1.57,3.5,3.5v74.05c0,1.93-1.57,3.5-3.5,3.5Zm-145.74-7h142.24v-67.05h-142.24v67.05Z" fill="#fff"/><path d="m301.59,409.66h-119.15c-1.93,0-3.5-1.57-3.5-3.5s1.57-3.5,3.5-3.5h119.15c1.93,0,3.5,1.57,3.5,3.5s-1.57,3.5-3.5,3.5Z" fill="#fff"/><circle cx="176.07" cy="377.66" r="10.49" fill="#fff"/><circle cx="219.86" cy="377.67" r="10.49" fill="#fff"/><circle cx="264.06" cy="377.71" r="10.49" fill="#fff"/><circle cx="307.96" cy="377.66" r="10.49" fill="#fff"/><path d="m38.24,541.3c-1.93,0-3.5-1.57-3.5-3.5v-10.21c0-1.93,1.57-3.5,3.5-3.5s3.5,1.57,3.5,3.5v10.21c0,1.93-1.57,3.5-3.5,3.5Z" fill="#fff"/><path d="m48.24,152.53c-1.93,0-3.5-1.57-3.5-3.5v-50.08c0-1.93,1.57-3.5,3.5-3.5s3.5,1.57,3.5,3.5v50.08c0,1.93-1.57,3.5-3.5,3.5Z" fill="#fff"/><path d="m48.24,302.74c-1.93,0-3.5-1.57-3.5-3.5v-69.45c0-1.93,1.57-3.5,3.5-3.5s3.5,1.57,3.5,3.5v69.45c0,1.93-1.57,3.5-3.5,3.5Z" fill="#fff"/><path d="m72.96,531.08H-114.27c-16.29,0-29.54-13.25-29.54-29.54V77.5c0-16.29,13.25-29.54,29.54-29.54H72.96c16.29,0,29.54,13.25,29.54,29.54v424.04c0,16.29-13.25,29.54-29.54,29.54ZM-114.27,54.95c-12.43,0-22.54,10.11-22.54,22.54v424.04c0,12.43,10.11,22.54,22.54,22.54H72.96c12.43,0,22.54-10.11,22.54-22.54V77.5c0-12.43-10.11-22.54-22.54-22.54H-114.27Z" fill="#fff"/><path d="m99,193.29h-239.32c-1.93,0-3.5-1.57-3.5-3.5s1.57-3.5,3.5-3.5H99c1.93,0,3.5,1.57,3.5,3.5s-1.57,3.5-3.5,3.5Z" fill="#fff"/><path d="m213.59,116.55h-30.37c-1.93,0-3.5-1.57-3.5-3.5s1.57-3.5,3.5-3.5h30.37c1.93,0,3.5,1.57,3.5,3.5s-1.57,3.5-3.5,3.5Z" fill="#fff"/><path d="m453.15,75.25H150.92c-1.93,0-3.5-1.57-3.5-3.5s1.57-3.5,3.5-3.5h302.23c1.93,0,3.5,1.57,3.5,3.5s-1.57,3.5-3.5,3.5Z" fill="#fff"/><path d="m453.15,155.84H150.92c-1.93,0-3.5-1.57-3.5-3.5v-80.59c0-1.08.5-2.1,1.35-2.76L238.09-.48v-88.96c0-1.93,1.57-3.5,3.5-3.5h120.89c1.93,0,3.5,1.57,3.5,3.5V-.48l89.32,69.47c.85.66,1.35,1.68,1.35,2.76v80.59c0,1.93-1.57,3.5-3.5,3.5Zm-298.73-7h295.23v-75.38L360.33,3.99c-.85-.66-1.35-1.68-1.35-2.76v-87.17h-113.89V1.23c0,1.08-.5,2.1-1.35,2.76l-89.32,69.47v75.38ZM241.59,1.23h0,0Z" fill="#fff"/></g><g clip-path="url(#d)" fill="none"><path d="m443.14,589.41c-3.16,0-6.12-1.25-8.32-3.52-2.2-2.27-3.37-5.26-3.28-8.42l1.85-64.61c.06-1.93,1.7-3.44,3.6-3.4,1.93.06,3.45,1.67,3.4,3.6l-1.85,64.61c-.04,1.25.43,2.44,1.3,3.34s2.05,1.39,3.3,1.39,2.42-.5,3.3-1.39c.88-.9,1.34-2.08,1.3-3.34l-1.85-64.61c-.05-1.93,1.47-3.54,3.4-3.6.03,0,.07,0,.1,0,1.89,0,3.44,1.5,3.5,3.4l1.85,64.61c.09,3.16-1.08,6.15-3.28,8.42-2.2,2.27-5.16,3.51-8.32,3.51Z" fill="#fff"/><path d="m449.39,516.47h-12.5c-8.82,0-16-7.18-16-16v-37.51c0-1.93,1.57-3.5,3.5-3.5s3.5,1.57,3.5,3.5v37.51c0,4.96,4.04,9,9,9h12.5c4.96,0,9-4.04,9-9v-37.51c0-1.93,1.57-3.5,3.5-3.5s3.5,1.57,3.5,3.5v37.51c0,8.82-7.18,16-16,16Z" fill="#fff"/><path d="m436.89,499.79c-1.93,0-3.5-1.57-3.5-3.5v-33.34c0-1.93,1.57-3.5,3.5-3.5s3.5,1.57,3.5,3.5v33.34c0,1.93-1.57,3.5-3.5,3.5Z" fill="#fff"/><path d="m449.39,499.79c-1.93,0-3.5-1.57-3.5-3.5v-33.34c0-1.93,1.57-3.5,3.5-3.5s3.5,1.57,3.5,3.5v33.34c0,1.93-1.57,3.5-3.5,3.5Z" fill="#fff"/><path d="m508.71,589.41c-3.16,0-6.11-1.25-8.32-3.51-2.2-2.27-3.37-5.26-3.28-8.42l1.86-65.56c.06-1.93,1.71-3.42,3.6-3.4,1.93.06,3.45,1.67,3.4,3.6l-1.86,65.56c-.04,1.25.43,2.44,1.3,3.34.87.9,2.05,1.39,3.3,1.39s2.42-.5,3.3-1.39,1.34-2.08,1.3-3.34l-1.86-65.56c-.05-1.93,1.47-3.54,3.4-3.6,1.93-.08,3.54,1.47,3.6,3.4l1.86,65.56c.09,3.16-1.07,6.15-3.28,8.42-2.2,2.27-5.16,3.52-8.32,3.52Z" fill="#fff"/><path d="m508.71,516.47c-13.42,0-24.34-10.92-24.34-24.34v-10.42c0-13.42,10.92-24.34,24.34-24.34s24.34,10.92,24.34,24.34v10.42c0,13.42-10.92,24.34-24.34,24.34Zm0-52.1c-9.56,0-17.34,7.78-17.34,17.34v10.42c0,9.56,7.78,17.34,17.34,17.34s17.34-7.78,17.34-17.34v-10.42c0-9.56-7.78-17.34-17.34-17.34Z" fill="#fff"/><path d="m382.24,443.36c-69.25,0-125.58-56.34-125.58-125.58s56.34-125.58,125.58-125.58,125.58,56.34,125.58,125.58-56.34,125.58-125.58,125.58Zm0-244.16c-65.39,0-118.58,53.2-118.58,118.58s53.2,118.58,118.58,118.58,118.58-53.2,118.58-118.58-53.2-118.58-118.58-118.58Z" fill="#fff"/><path d="m382.24,407.6c-49.53,0-89.83-40.29-89.83-89.83s40.29-89.83,89.83-89.83,89.83,40.29,89.83,89.83-40.29,89.83-89.83,89.83Zm0-172.65c-45.67,0-82.83,37.16-82.83,82.83s37.16,82.83,82.83,82.83,82.83-37.16,82.83-82.83-37.16-82.83-82.83-82.83Z" fill="#fff"/></g></svg>