<?xml version="1.0" encoding="UTF-8"?><svg id="a" xmlns="http://www.w3.org/2000/svg" viewBox="0 0 580 580"><path d="m270,60v150c0,33.14,26.86,60,60,60h180c33.14,0,60-26.86,60-60v-30c0-33.14-26.86-60-60-60h-105c-8.28,0-15,6.72-15,15v15c0,8.28,6.72,15,15,15h105c8.28,0,15,6.72,15,15v30c0,8.28-6.72,15-15,15h-180c-8.28,0-15-6.72-15-15V60c0-8.28,6.72-15,15-15h180c8.28,0,15-6.72,15-15v-15c0-8.28-6.72-15-15-15h-180c-33.14,0-60,26.86-60,60Z" fill="#59bffa"/><path d="m240,285V60c0-33.14-26.86-60-60-60H15C6.72,0,0,6.72,0,15v540c0,8.28,6.72,15,15,15h255c33.14,0,60-26.86,60-60v-150c0-33.14-26.86-60-60-60h-15c-8.28,0-15-6.72-15-15Zm30,240H45v-180h225c8.28,0,15,6.72,15,15v150c0,8.28-6.72,15-15,15ZM45,45h135c8.28,0,15,6.72,15,15v225c0,8.28-6.72,15-15,15H45V45Z" fill="#19a3f5"/><path d="m360,360v150c0,33.14,26.86,60,60,60h135c8.28,0,15-6.72,15-15v-15c0-8.28-6.72-15-15-15h-135c-8.28,0-15-6.72-15-15v-150c0-8.28,6.72-15,15-15h135c8.28,0,15-6.72,15-15v-15c0-8.28-6.72-15-15-15h-135c-33.14,0-60,26.86-60,60Z" fill="#f6931a"/><path d="m561.17,5.54c2.78,1.58,4.95,3.75,6.5,6.53,1.55,2.78,2.33,5.92,2.33,9.42s-.78,6.65-2.33,9.42c-1.55,2.78-3.72,4.95-6.5,6.53-2.78,1.58-5.93,2.37-9.44,2.37s-6.66-.79-9.44-2.37c-2.78-1.58-4.96-3.75-6.54-6.53-1.58-2.78-2.37-5.92-2.37-9.42s.79-6.65,2.37-9.42c1.58-2.77,3.76-4.95,6.54-6.53,2.78-1.58,5.93-2.37,9.44-2.37s6.66.79,9.44,2.37Zm-.1,25.48c2.35-2.42,3.52-5.6,3.52-9.53s-1.17-7.11-3.52-9.53c-2.35-2.42-5.46-3.63-9.35-3.63s-7.07,1.21-9.39,3.63c-2.32,2.42-3.48,5.6-3.48,9.53s1.16,7.11,3.48,9.53c2.32,2.42,5.45,3.63,9.39,3.63s7-1.21,9.35-3.63Zm-2.79-9.65c-.59.89-1.4,1.55-2.43,1.98l4.29,6.62h-6.15l-3.56-6.06h-.57v6.06h-5.1V12.61h8.17c1.89,0,3.4.53,4.53,1.57,1.13,1.05,1.7,2.41,1.7,4.08,0,1.19-.3,2.22-.89,3.11Zm-8.42-1.57h2.75c.43,0,.8-.12,1.09-.36.3-.24.44-.58.44-1.01s-.15-.75-.44-.97c-.3-.21-.66-.32-1.09-.32h-2.75v2.66Z" fill="#59bffa"/></svg>