<?xml version="1.0" encoding="UTF-8"?><svg id="a" xmlns="http://www.w3.org/2000/svg" viewBox="0 0 640 110"><path d="m20.33,91.01v-29.25h25.6v-15.77h-25.6v-27.31h29.27V2.65H2.17v104.54h47.98v-16.18h-29.82Z" fill="#06f"/><path d="m100.68,2.65h-24.08l-22.23,104.54h18.58l3.8-20.41h23.77l3.8,20.41h18.56L100.68,2.65Zm-20.98,68.39l7.46-39.69,1.41-8.71h.28l1.27,8.86,7.45,39.54h-17.88Z" fill="#06f"/><path d="m181.38,62.18c-1.84-3.77-4.56-7-8.16-9.72-3.61-2.72-8.43-5.29-14.44-7.74-3.27-1.41-5.69-2.55-7.25-3.44-1.54-.89-2.85-2.11-3.94-3.65-1.08-1.56-1.62-3.59-1.62-6.12v-5.91c0-2.62.8-4.75,2.4-6.41,1.6-1.64,3.94-2.45,7.04-2.45,7.11,0,10.69,4.22,10.69,12.67v5.48h17.15v-5.48c.1-8.92-2.24-15.9-7.02-20.98-4.79-5.06-11.73-7.59-20.83-7.59-8.35,0-15.04,2.19-20.06,6.54-5.02,4.36-7.53,10.44-7.53,18.22v5.91c0,4.96.78,9.09,2.34,12.38,1.54,3.29,3.8,6.05,6.81,8.29,3.01,2.26,7,4.51,11.96,6.77,4.98,2.24,8.44,3.94,10.42,5.06,1.96,1.12,3.54,2.61,4.72,4.43,1.16,1.83,1.75,4.34,1.75,7.53v6.6c0,3.29-.88,5.9-2.61,7.82-1.73,1.92-4.24,2.89-7.53,2.89-4.22,0-7.19-1.27-8.92-3.8-1.75-2.53-2.61-5.72-2.61-9.57v-6.2h-17.88v6.2c0,9.57,2.51,16.83,7.53,21.81,5.02,4.96,12.3,7.46,21.87,7.46,8.63,0,15.54-2.34,20.69-7.04,5.15-4.7,7.74-11.13,7.74-19.28v-6.75c0-5.53-.91-10.17-2.74-13.92Z" fill="#06f"/><path d="m213.38,91.01v-29.25h25.6v-15.77h-25.6v-27.31h29.27V2.65h-47.43v104.54h47.98v-16.18h-29.82Z" fill="#06f"/><path d="m281.91,53.16v15.2h11.68v8.31c0,6.09-1.01,10.4-3.02,12.93-2.02,2.55-5.19,3.8-9.51,3.8-7.49,0-11.24-5.67-11.24-17.02v-43.06c0-5.53,1.01-9.64,3.02-12.3,2.02-2.68,4.75-4.01,8.22-4.01,4.24,0,7.11,1.35,8.67,4.07,1.54,2.72,2.32,6.68,2.32,11.83v7.3h18.01v-6.05c0-10.69-2.26-18.92-6.75-24.69-4.51-5.76-11.92-8.65-22.25-8.65s-17.44,2.89-22.21,8.65c-4.79,5.76-7.19,14.66-7.19,26.66v37.71c0,11.91,2.4,20.77,7.19,26.59,4.77,5.82,12.19,8.73,22.21,8.73,10.61,0,18.11-3.04,22.52-9.15,4.41-6.1,6.62-15.06,6.62-26.87v-19.99h-28.28Z" fill="#06f"/><path d="m340.29,90.74V2.65h-18.14v104.54h45.87v-16.45h-27.73Z" fill="#06f"/><path d="m402.92.83c-19.61,0-29.42,11.72-29.42,35.18v37.85c0,23.54,9.81,35.32,29.42,35.32s29.55-11.77,29.55-35.32v-37.85c0-23.47-9.85-35.18-29.55-35.18Zm11.26,75.14c0,5.91-.95,10.21-2.81,12.93-1.88,2.74-4.7,4.09-8.44,4.09-7.51,0-11.26-5.67-11.26-17.02v-42.07c0-11.26,3.75-16.89,11.26-16.89,3.75,0,6.56,1.35,8.44,4.07,1.86,2.72,2.81,7,2.81,12.82v42.07Z" fill="#06f"/><path d="m486.35,51.76v-.13c7.7-3.39,11.54-9.98,11.54-19.84v-6.49c0-7.59-2.32-13.27-6.96-17.02-4.64-3.75-11.01-5.63-19.08-5.63h-26.74v104.54h28.72c18.11,0,27.16-8.81,27.16-26.45v-8.16c0-11.35-4.89-18.3-14.64-20.82Zm-23.35-33.62h7.46c3.75,0,6.45.84,8.1,2.53,1.64,1.69,2.45,4.28,2.45,7.74v6.33c0,3.75-.82,6.52-2.45,8.29-1.65,1.79-4.39,2.68-8.24,2.68h-7.32v-27.58Zm19.99,61.9c0,3.96-.95,6.88-2.82,8.81-1.88,1.92-4.79,2.87-8.73,2.87h-8.44v-30.68h8.03c4.13,0,7.15.93,9.07,2.76,1.92,1.83,2.89,4.75,2.89,8.79v7.46Z" fill="#06f"/><path d="m567.37,75.3c-5.17,2.64-10.67,4.94-16.49,6.85l-1.92-10.27-1.26-6.64-6.33-33.74-1.27-8.86h-.27l-1.41,8.71-14.23,75.84h-18.56l22.23-104.54h24.06l12.27,57.66,1.26,5.97,1.92,9.01Z" fill="#06f"/><path d="m574.16,107.2h-18.58l-3.44-18.39c5.86-2.11,11.37-4.64,16.53-7.47l5.5,25.86Z" fill="#06f"/><path d="m582.74,2.65v63.43c6.73-4.74,12.78-9.91,18.16-15.23V2.65h-18.16Zm18.16,88.09v-34.5c-5.34,5.59-11.37,11.07-18.16,16.07v34.88h45.87v-16.45h-27.71Z" fill="#06f"/><path d="m635.57.86c-11.24,16.45-23.15,28.81-34.67,38.07-6.22,5.02-12.32,9.13-18.16,12.51-6.64,3.82-12.89,6.71-18.54,8.86-6.41,2.45-12.02,3.99-16.49,4.93-6.96,1.5-11.13,1.58-11.13,1.58,0,0-2.34,10.73-4.47,19.8.97-.15,1.92-.3,2.87-.48,5.55-.97,10.86-2.32,15.9-3.99,5.82-1.9,11.32-4.2,16.49-6.85,5.48-2.76,10.59-5.88,15.37-9.22,6.73-4.74,12.78-9.91,18.16-15.23,15.84-15.67,25.9-32.48,30.9-42.09,2.4-4.6,3.63-7.55,3.77-7.89Z" fill="#f36"/><path d="m604.05,60.1v12.75c27.07-25.06,33.79-70.2,33.79-70.2-16.89,45.82-33.79,57.45-33.79,57.45Z" fill="#f36"/></svg>