<?xml version="1.0" encoding="UTF-8"?><svg id="a" xmlns="http://www.w3.org/2000/svg" xmlns:xlink="http://www.w3.org/1999/xlink" viewBox="0 0 580 580"><defs><clipPath id="b"><rect x="270" width="300" height="270" rx="15" ry="15" fill="none"/></clipPath><clipPath id="c"><path d="m240,285V15c0-8.28-6.72-15-15-15H15C6.72,0,0,6.72,0,15v540c0,8.28,6.72,15,15,15h300c8.28,0,15-6.72,15-15v-240c0-8.28-6.72-15-15-15h-60c-8.28,0-15-6.72-15-15Z" fill="none"/></clipPath><clipPath id="d"><rect x="360" y="300" width="210" height="270" rx="15" ry="15" fill="none"/></clipPath></defs><rect x="270" width="300" height="270" rx="15" ry="15" fill="#59bffa"/><path d="m240,285V15c0-8.28-6.72-15-15-15H15C6.72,0,0,6.72,0,15v540c0,8.28,6.72,15,15,15h300c8.28,0,15-6.72,15-15v-240c0-8.28-6.72-15-15-15h-60c-8.28,0-15-6.72-15-15Z" fill="#19a3f5"/><rect x="360" y="300" width="210" height="270" rx="15" ry="15" fill="#f6931a"/><g clip-path="url(#b)" fill="none"><path d="m396.04,278.5h-61.1c-1.93,0-3.5-1.57-3.5-3.5s1.57-3.5,3.5-3.5h61.1c1.93,0,3.5,1.57,3.5,3.5s-1.57,3.5-3.5,3.5Z" fill="#fff"/><path d="m365.38,278.5c-1.93,0-3.5-1.57-3.5-3.5v-51.93c0-1.93,1.57-3.5,3.5-3.5s3.5,1.57,3.5,3.5v51.93c0,1.93-1.57,3.5-3.5,3.5Z" fill="#fff"/><path d="m365.38,226.57c-1.1,0-2.14-.52-2.8-1.4l-64.15-85.54c-.8-1.06-.92-2.48-.33-3.67s1.8-1.93,3.13-1.93h128.31c1.33,0,2.54.75,3.13,1.93s.46,2.6-.33,3.67l-64.15,85.54c-.66.88-1.7,1.4-2.8,1.4Zm-57.15-85.54l57.15,76.21,57.15-76.21h-114.31Z" fill="#fff"/><path d="m492.21,229.62c-10.67,0-20.66-4.21-28.12-11.84s-11.42-17.72-11.17-28.39l2.18-91.66c.04-1.9,1.6-3.42,3.5-3.42h67.21c1.9,0,3.45,1.52,3.5,3.42l2.18,91.66c.25,10.67-3.71,20.75-11.17,28.39-7.46,7.64-17.44,11.84-28.12,11.84Zm-30.19-128.31l-2.1,88.24c-.21,8.77,3.05,17.06,9.18,23.33,6.13,6.28,14.33,9.73,23.11,9.73s16.98-3.46,23.11-9.73c6.13-6.28,9.39-14.56,9.18-23.33l-2.1-88.24h-60.37Z" fill="#fff"/><path d="m492.21,278.5c-1.93,0-3.5-1.57-3.5-3.5v-48.88c0-1.93,1.57-3.5,3.5-3.5s3.5,1.57,3.5,3.5v48.88c0,1.93-1.57,3.5-3.5,3.5Z" fill="#fff"/><path d="m522.76,278.5h-61.1c-1.93,0-3.5-1.57-3.5-3.5s1.57-3.5,3.5-3.5h61.1c1.93,0,3.5,1.57,3.5,3.5s-1.57,3.5-3.5,3.5Z" fill="#fff"/></g><g clip-path="url(#c)" fill="none"><path d="m168.68,328.9h60.26c3.93,0,7.12,3.19,7.12,7.12v6.75h-74.5v-6.75c0-3.93,3.19-7.12,7.12-7.12Z" fill="#fff"/><path d="m255.11,328.9h60.26c3.93,0,7.12,3.19,7.12,7.12v6.75h-74.5v-6.75c0-3.93,3.19-7.12,7.12-7.12Z" fill="#fff"/><path d="m329.7,530.02h-175.37c-8.88,0-16.1-7.22-16.1-16.1v-158.55c0-8.88,7.22-16.1,16.1-16.1h175.37c8.88,0,16.1,7.22,16.1,16.1v158.55c0,8.88-7.22,16.1-16.1,16.1Zm-175.37-183.74c-5.02,0-9.1,4.08-9.1,9.1v158.55c0,5.02,4.08,9.1,9.1,9.1h175.37c5.02,0,9.1-4.08,9.1-9.1v-158.55c0-5.02-4.08-9.1-9.1-9.1h-175.37Z" fill="#fff"/><path d="m174.35,541.12c-1.93,0-3.5-1.57-3.5-3.5v-11.1c0-1.93,1.57-3.5,3.5-3.5s3.5,1.57,3.5,3.5v11.1c0,1.93-1.57,3.5-3.5,3.5Z" fill="#fff"/><path d="m309.45,541.12c-1.93,0-3.5-1.57-3.5-3.5v-11.1c0-1.93,1.57-3.5,3.5-3.5s3.5,1.57,3.5,3.5v11.1c0,1.93-1.57,3.5-3.5,3.5Z" fill="#fff"/><path d="m316.64,503.01h-149.24c-1.93,0-3.5-1.57-3.5-3.5v-74.05c0-1.93,1.57-3.5,3.5-3.5h149.24c1.93,0,3.5,1.57,3.5,3.5v74.05c0,1.93-1.57,3.5-3.5,3.5Zm-145.74-7h142.24v-67.05h-142.24v67.05Z" fill="#fff"/><path d="m301.59,409.49h-119.15c-1.93,0-3.5-1.57-3.5-3.5s1.57-3.5,3.5-3.5h119.15c1.93,0,3.5,1.57,3.5,3.5s-1.57,3.5-3.5,3.5Z" fill="#fff"/><circle cx="176.07" cy="377.48" r="10.49" fill="#fff"/><circle cx="219.86" cy="377.5" r="10.49" fill="#fff"/><circle cx="264.06" cy="377.53" r="10.49" fill="#fff"/><circle cx="307.96" cy="377.49" r="10.49" fill="#fff"/><path d="m38.24,541.12c-1.93,0-3.5-1.57-3.5-3.5v-10.21c0-1.93,1.57-3.5,3.5-3.5s3.5,1.57,3.5,3.5v10.21c0,1.93-1.57,3.5-3.5,3.5Z" fill="#fff"/><path d="m48.24,152.35c-1.93,0-3.5-1.57-3.5-3.5v-50.08c0-1.93,1.57-3.5,3.5-3.5s3.5,1.57,3.5,3.5v50.08c0,1.93-1.57,3.5-3.5,3.5Z" fill="#fff"/><path d="m48.24,302.57c-1.93,0-3.5-1.57-3.5-3.5v-69.45c0-1.93,1.57-3.5,3.5-3.5s3.5,1.57,3.5,3.5v69.45c0,1.93-1.57,3.5-3.5,3.5Z" fill="#fff"/><path d="m72.96,530.91H-114.27c-16.29,0-29.54-13.25-29.54-29.54V77.32c0-16.29,13.25-29.54,29.54-29.54H72.96c16.29,0,29.54,13.25,29.54,29.54v424.04c0,16.29-13.25,29.54-29.54,29.54ZM-114.27,54.78c-12.43,0-22.54,10.11-22.54,22.54v424.04c0,12.43,10.11,22.54,22.54,22.54H72.96c12.43,0,22.54-10.11,22.54-22.54V77.32c0-12.43-10.11-22.54-22.54-22.54H-114.27Z" fill="#fff"/><path d="m99,193.12h-239.32c-1.93,0-3.5-1.57-3.5-3.5s1.57-3.5,3.5-3.5H99c1.93,0,3.5,1.57,3.5,3.5s-1.57,3.5-3.5,3.5Z" fill="#fff"/><path d="m213.59,116.37h-30.37c-1.93,0-3.5-1.57-3.5-3.5s1.57-3.5,3.5-3.5h30.37c1.93,0,3.5,1.57,3.5,3.5s-1.57,3.5-3.5,3.5Z" fill="#fff"/><path d="m453.15,75.08H150.92c-1.93,0-3.5-1.57-3.5-3.5s1.57-3.5,3.5-3.5h302.23c1.93,0,3.5,1.57,3.5,3.5s-1.57,3.5-3.5,3.5Z" fill="#fff"/><path d="m453.15,155.67H150.92c-1.93,0-3.5-1.57-3.5-3.5v-80.59c0-1.08.5-2.1,1.35-2.76L238.09-.66v-88.96c0-1.93,1.57-3.5,3.5-3.5h120.89c1.93,0,3.5,1.57,3.5,3.5V-.66l89.32,69.47c.85.66,1.35,1.68,1.35,2.76v80.59c0,1.93-1.57,3.5-3.5,3.5Zm-298.73-7h295.23v-75.38L360.33,3.82c-.85-.66-1.35-1.68-1.35-2.76v-87.17h-113.89V1.05c0,1.08-.5,2.1-1.35,2.76l-89.32,69.47v75.38ZM241.59,1.05h0,0Z" fill="#fff"/></g><g clip-path="url(#d)" fill="none"><path d="m443.14,589.23c-3.16,0-6.12-1.25-8.32-3.52-2.2-2.27-3.37-5.26-3.28-8.42l1.85-64.61c.06-1.93,1.7-3.44,3.6-3.4,1.93.06,3.45,1.67,3.4,3.6l-1.85,64.61c-.04,1.25.43,2.44,1.3,3.34s2.05,1.39,3.3,1.39,2.42-.5,3.3-1.39c.88-.9,1.34-2.08,1.3-3.34l-1.85-64.61c-.05-1.93,1.47-3.54,3.4-3.6.03,0,.07,0,.1,0,1.89,0,3.44,1.5,3.5,3.4l1.85,64.61c.09,3.16-1.08,6.15-3.28,8.42-2.2,2.27-5.16,3.51-8.32,3.51Z" fill="#fff"/><path d="m449.39,516.29h-12.5c-8.82,0-16-7.18-16-16v-37.51c0-1.93,1.57-3.5,3.5-3.5s3.5,1.57,3.5,3.5v37.51c0,4.96,4.04,9,9,9h12.5c4.96,0,9-4.04,9-9v-37.51c0-1.93,1.57-3.5,3.5-3.5s3.5,1.57,3.5,3.5v37.51c0,8.82-7.18,16-16,16Z" fill="#fff"/><path d="m436.89,499.62c-1.93,0-3.5-1.57-3.5-3.5v-33.34c0-1.93,1.57-3.5,3.5-3.5s3.5,1.57,3.5,3.5v33.34c0,1.93-1.57,3.5-3.5,3.5Z" fill="#fff"/><path d="m449.39,499.62c-1.93,0-3.5-1.57-3.5-3.5v-33.34c0-1.93,1.57-3.5,3.5-3.5s3.5,1.57,3.5,3.5v33.34c0,1.93-1.57,3.5-3.5,3.5Z" fill="#fff"/><path d="m508.71,589.23c-3.16,0-6.11-1.25-8.32-3.51-2.2-2.27-3.37-5.26-3.28-8.42l1.86-65.56c.06-1.93,1.71-3.42,3.6-3.4,1.93.06,3.45,1.67,3.4,3.6l-1.86,65.56c-.04,1.25.43,2.44,1.3,3.34.87.9,2.05,1.39,3.3,1.39s2.42-.5,3.3-1.39,1.34-2.08,1.3-3.34l-1.86-65.56c-.05-1.93,1.47-3.54,3.4-3.6,1.93-.08,3.54,1.47,3.6,3.4l1.86,65.56c.09,3.16-1.07,6.15-3.28,8.42-2.2,2.27-5.16,3.52-8.32,3.52Z" fill="#fff"/><path d="m508.71,516.29c-13.42,0-24.34-10.92-24.34-24.34v-10.42c0-13.42,10.92-24.34,24.34-24.34s24.34,10.92,24.34,24.34v10.42c0,13.42-10.92,24.34-24.34,24.34Zm0-52.1c-9.56,0-17.34,7.78-17.34,17.34v10.42c0,9.56,7.78,17.34,17.34,17.34s17.34-7.78,17.34-17.34v-10.42c0-9.56-7.78-17.34-17.34-17.34Z" fill="#fff"/><path d="m382.24,443.18c-69.25,0-125.58-56.34-125.58-125.58s56.34-125.58,125.58-125.58,125.58,56.34,125.58,125.58-56.34,125.58-125.58,125.58Zm0-244.16c-65.39,0-118.58,53.2-118.58,118.58s53.2,118.58,118.58,118.58,118.58-53.2,118.58-118.58-53.2-118.58-118.58-118.58Z" fill="#fff"/><path d="m382.24,407.42c-49.53,0-89.83-40.29-89.83-89.83s40.29-89.83,89.83-89.83,89.83,40.29,89.83,89.83-40.29,89.83-89.83,89.83Zm0-172.65c-45.67,0-82.83,37.16-82.83,82.83s37.16,82.83,82.83,82.83,82.83-37.16,82.83-82.83-37.16-82.83-82.83-82.83Z" fill="#fff"/></g></svg>